<?xml version="1.0" encoding="UTF-8" standalone="no"?>
<!-- Created with Inkscape (http://www.inkscape.org/) -->

<svg
   xmlns:dc="http://purl.org/dc/elements/1.1/"
   xmlns:cc="http://creativecommons.org/ns#"
   xmlns:rdf="http://www.w3.org/1999/02/22-rdf-syntax-ns#"
   xmlns:svg="http://www.w3.org/2000/svg"
   xmlns="http://www.w3.org/2000/svg"
   xmlns:sodipodi="http://sodipodi.sourceforge.net/DTD/sodipodi-0.dtd"
   xmlns:inkscape="http://www.inkscape.org/namespaces/inkscape"
   width="100mm"
   height="100mm"
   viewBox="0 0 100 100"
   version="1.1"
   id="svg8"
   inkscape:version="0.92.5 (2060ec1f9f, 2020-04-08)"
   sodipodi:docname="hoiax.svg">
  <defs
     id="defs2" />
  <sodipodi:namedview
     id="base"
     pagecolor="#ffffff"
     bordercolor="#666666"
     borderopacity="1.0"
     inkscape:pageopacity="0.0"
     inkscape:pageshadow="2"
     inkscape:zoom="1.4"
     inkscape:cx="-138.49765"
     inkscape:cy="236.29097"
     inkscape:document-units="mm"
     inkscape:current-layer="layer1"
     showgrid="false"
     inkscape:window-width="3368"
     inkscape:window-height="1403"
     inkscape:window-x="1992"
     inkscape:window-y="0"
     inkscape:window-maximized="1" />
  <metadata
     id="metadata5">
    <rdf:RDF>
      <cc:Work
         rdf:about="">
        <dc:format>image/svg+xml</dc:format>
        <dc:type
           rdf:resource="http://purl.org/dc/dcmitype/StillImage" />
        <dc:title></dc:title>
      </cc:Work>
    </rdf:RDF>
  </metadata>
  <g
     inkscape:label="Layer 1"
     inkscape:groupmode="layer"
     id="layer1"
     transform="translate(0,-197)">
    <path
       d="m 14.362803,240.99854 c 0,0 4.437237,0 4.437237,0 0.201259,0.001 0.51345,-0.0254 0.665584,0.12678 0.152134,0.15213 0.125983,0.46432 0.126777,0.66558 0,0 0,2.21862 0,2.21862 0,0 0,10.06301 0,10.06301 0.0015,0.86606 0.293176,1.17746 1.188546,1.18855 0,0 6.259669,0 6.259669,0 0.236919,0 0.486511,0.009 0.713128,-0.0673 0.219487,-0.0745 0.41837,-0.20681 0.530094,-0.4152 0.167188,-0.31457 0.1038,-1.62672 0.1038,-2.05302 0,0 0,-7.92363 0,-7.92363 0,0 0,-14.65872 0,-14.65872 0.0011,-0.56337 0.171942,-1.42784 -0.554656,-1.65288 -0.145003,-0.0173 -0.399351,-0.0111 -0.554657,0 0,0 -6.576614,0 -6.576614,0 -0.227409,-0.0111 -0.504736,-0.0277 -0.709958,0.0816 -0.159265,0.0856 -0.274949,0.21552 -0.340717,0.3843 -0.09667,0.24562 -0.05863,1.47538 -0.05863,1.82085 0,0 0,7.36898 0,7.36898 -0.0015,0.65291 -0.02061,0.7876 -0.713126,0.79236 0,0 -4.516472,0 -4.516472,0 0,0 0,-9.34989 0,-9.34989 0,-0.1862 0.01108,-0.44848 -0.05705,-0.62041 -0.26465,-0.66639 -1.25986,-0.4889 -1.844622,-0.4889 0,0 -5.784252,0 -5.784252,0 -1.0292812,0.002 -1.1869608,0.38034 -1.1885452,1.34703 0,0 0,8.31981 0,8.31981 -8.729e-4,0.57209 0.011888,0.78048 -0.6338917,0.79236 0,0 -3.565635,0 -3.565635,0 -0.64736209,0.001 -1.01581033,0.0325 -1.03007146,0.79236 -0.005532,0.32487 -0.0586368,0.8423 0.18303398,1.08475 0.25355708,0.25277 0.82168078,0.18304 1.16398158,0.18304 0,0 3.0902171,0 3.0902171,0 0.2012598,0.001 0.5134517,-0.0254 0.6655855,0.12678 0.1521338,0.15213 0.1259863,0.46432 0.12678,0.66558 0,0 0,2.21862 0,2.21862 0,0 0,9.82531 0,9.82531 0.00151,1.057 0.2717806,1.42467 1.3470155,1.42625 0,0 6.1804357,0 6.1804357,0 0.474627,-0.001 0.984116,-0.0317 1.254312,-0.4984 0.125984,-0.21869 0.09271,-0.66954 0.09271,-0.92785 0,0 0,-1.90168 0,-1.90168 0,0 0,-10.93461 0,-10.93461 z m 37.954205,-11.20957 c -1.214693,0.35815 -1.982492,1.06256 -2.409573,2.25586 -0.127574,0.35735 -0.220278,0.7258 -0.198091,1.1093 0.102211,1.75431 1.558578,3.20512 3.320791,3.24791 0.448481,0.0103 1.099011,-0.10141 1.505494,-0.28843 2.630648,-1.20914 2.663925,-4.96415 0,-6.11625 -0.532469,-0.23058 -0.696492,-0.24959 -1.267782,-0.25038 -0.320907,-0.001 -0.633098,-0.0103 -0.950839,0.042 z m -17.986647,9.1621 c -0.376371,0.11331 -1.020563,0.34151 -1.347021,0.5396 -0.354976,0.21473 -0.64577,0.41678 -0.937362,0.7155 -1.534808,1.57443 -1.281253,3.53633 -1.281253,5.54654 0,0 0,4.75419 0,4.75419 0.0011,0.59506 0.09192,1.1719 0.26148,1.74319 0.06577,0.22346 0.270988,0.59032 0.251972,0.79238 -0.03881,0.39697 -0.980943,1.09187 -1.2139,1.52767 -0.198093,0.37161 -0.01425,0.63785 0.383503,0.68777 0,0 0.396178,0 0.396178,0 0,0 0.396183,0 0.396183,0 0.35419,-0.002 0.54911,-0.019 0.835151,-0.25197 0.176702,-0.14501 0.370034,-0.45324 0.614873,-0.44294 0.196509,0.009 0.558618,0.2496 0.768596,0.32963 0.614082,0.23296 1.244805,0.36766 1.901672,0.36845 0,0 7.685927,0 7.685927,0 2.411953,-0.004 4.512506,-1.78995 4.516469,-4.27876 0,0 0,-8.00288 0,-8.00288 -0.0058,-0.45877 -0.129949,-0.83594 -0.27416,-1.26778 -0.04835,-0.1442 -0.186995,-0.42074 -0.17907,-0.55465 0.01187,-0.19175 0.166391,-0.33755 0.28287,-0.47541 0.204433,-0.2401 0.85021,-0.90964 0.948458,-1.10931 0.135495,-0.27338 0.118062,-0.56417 -0.228197,-0.62994 0,0 -0.391429,0 -0.391429,0 0,0 -0.633888,0 -0.633888,0 -0.304266,0.001 -0.45561,0.003 -0.713128,0.18858 -0.211561,0.15215 -0.43184,0.4572 -0.713127,0.45086 -0.171151,-0.004 -0.518999,-0.23058 -0.713128,-0.30902 -0.63785,-0.25989 -0.893785,-0.33359 -1.584726,-0.3217 0,0 -5.86349,0 -5.86349,0 0,0 -3.169453,0 -3.169453,0 z m 16.005738,0.046 c -0.553067,0.29238 -0.626755,0.62201 -0.633889,1.20915 0,0 0,2.53556 0,2.53556 0,0 0,11.09309 0,11.09309 0.0017,0.91518 0.273369,1.42071 1.267782,1.42625 0,0 4.199525,0 4.199525,0 0.893786,-0.002 1.342267,-0.21314 1.347016,-1.18854 0,0 0,-4.35799 0,-4.35799 0,0 0,-9.58761 0,-9.58761 -0.0017,-0.85258 -0.209182,-1.18379 -1.109305,-1.18855 0,0 -3.248692,0 -3.248692,0 -0.492849,0 -1.380299,-0.0483 -1.822437,0.0587 z m 11.568509,-0.0166 c -1.219446,0.3526 -2.178209,1.02452 -2.64253,2.25586 -0.275741,0.73135 -0.557034,1.81529 0.423916,2.15126 0.225823,0.0768 0.47779,0.0673 0.713127,0.0673 0,0 3.88258,0 3.88258,0 1.155261,-0.0198 0.99996,-0.81851 1.302642,-1.42625 0.251182,-0.50316 0.604574,-0.81851 1.153684,-0.96748 0.87398,-0.23691 1.804214,0.75116 1.728146,1.60137 -0.107762,1.21231 -1.985664,1.43973 -2.916695,1.75113 0,0 -3.486397,1.13386 -3.486397,1.13386 -0.74324,0.23772 -1.544316,0.39618 -2.218615,0.80822 -1.017398,0.62041 -1.492024,1.80816 -1.505494,2.96264 -0.01664,1.46745 -0.216315,3.40558 0.663209,4.64167 0.949249,1.33275 2.328757,1.30106 3.774027,1.30106 0,0 3.565636,0 3.565636,0 0.474625,-0.001 0.814547,-0.0309 1.267782,-0.19334 0.171943,-0.061 0.658455,-0.29476 0.789196,-0.29714 0.233748,-0.005 0.36052,0.20522 0.564953,0.332 0.24246,0.14976 0.431841,0.15451 0.705995,0.15848 0,0 4.278762,0 4.278762,0 0.372414,-0.001 0.704411,0.015 1.012639,-0.23692 0.348644,-0.28604 0.333586,-0.77889 0.334377,-1.18933 0,0 0,-1.58474 0,-1.58474 0,0 0,-9.8253 0,-9.8253 -0.0011,-0.31853 -0.05388,-1.05939 -0.146584,-1.34702 -0.411236,-1.27253 -1.621967,-2.137 -2.94363,-2.13938 0,0 -6.735089,0 -6.735089,0 0,0 -3.565637,0.042 -3.565637,0.042 z m 20.918395,10.73415 c 0.518999,0.31297 0.777308,0.84782 1.120401,1.33353 0,0 1.365246,1.99439 1.365246,1.99439 0,0 0.465111,0.63072 0.465111,0.63072 0.25039,0.3843 0.793157,1.29472 1.171117,1.4841 0.235331,0.11806 0.532468,0.103 0.790778,0.0951 0,0 4.674946,0 4.674946,0 0.160054,0.009 0.402519,0.0127 0.554655,0 1.418329,-0.30902 0.06021,-1.88106 -0.328041,-2.44761 0,0 -3.160736,-4.59571 -3.160736,-4.59571 0,0 -1.229752,-1.82243 -1.229752,-1.82243 -0.03963,-0.11569 -0.04044,-0.19571 0,-0.30982 0.06498,-0.16322 0.957972,-1.11882 1.136251,-1.30581 0,0 1.608502,-1.79154 1.608502,-1.79154 0,0 2.19484,-2.37155 2.19484,-2.37155 0,0 0.899337,-1.03561 0.899337,-1.03561 0.175904,-0.30506 0.124397,-0.56179 -0.250391,-0.62993 0,0 -0.394593,0 -0.394593,0 0,0 -0.950833,0 -0.950833,0 -0.776522,0.0104 -1.12516,0.66321 -1.608502,1.19172 0,0 -2.353318,2.5728 -2.353318,2.5728 -0.396974,0.41837 -1.198057,1.20836 -1.426254,1.69883 -0.4984,-0.17512 -0.72818,-0.68857 -1.016601,-1.10614 0,0 -1.469045,-2.14255 -1.469045,-2.14255 0,0 -0.511864,-0.706 -0.511864,-0.706 -0.235332,-0.3732 -0.819308,-1.32245 -1.202021,-1.49202 -0.151338,-0.0293 -0.390631,-0.0206 -0.554649,0 0,0 -4.99189,0 -4.99189,0 -0.155301,-0.0206 -0.409654,-0.0269 -0.554656,0 -1.204393,0.34785 0.08161,1.84937 0.432632,2.35648 0,0 3.214617,4.67496 3.214617,4.67496 0,0 1.227372,1.81609 1.227372,1.81609 0.09429,0.27257 -0.06577,0.38826 -0.236919,0.57525 0,0 -0.9651,1.03563 -0.9651,1.03563 0,0 -3.831074,4.17971 -3.831074,4.17971 -0.176696,0.19097 -0.819306,0.84784 -0.892994,1.04355 -0.11727,0.31061 0.0094,0.55545 0.339922,0.61645 0,0 0.3946,0 0.3946,0 0,0 0.713128,0 0.713128,0 0.928645,-0.008 1.14972,-0.56099 1.745572,-1.18458 0,0 2.568848,-2.79546 2.568848,-2.79546 0.321698,-0.35497 1.14179,-1.2036 1.311358,-1.56253 z m -45.24395,-2.53557 c 0,0 0,-4.59571 0,-4.59571 0.0011,-0.43421 0.0135,-0.88665 0.354184,-1.20994 0.610119,-0.5808 2.869941,-0.76939 2.894502,1.05147 0,0 0,1.03007 0,1.03007 -0.01105,0.59982 -0.336756,0.75512 -0.719463,1.19014 0,0 -1.575219,1.74082 -1.575219,1.74082 -0.348645,0.35577 -0.484133,0.59505 -0.954004,0.79315 z m 58.238713,-3.60446 c -0.664,0.16244 -1.097423,0.25831 -1.650496,0.71947 -0.814546,0.67984 -1.38426,1.81847 -1.359694,2.88499 0.01187,0.50157 0.103002,0.65845 0.274951,1.10931 0.224235,0.58873 0.591895,1.14021 1.094252,1.53084 0.923897,0.71709 2.097388,0.87795 3.225707,0.66084 1.045131,-0.20126 2.253487,-1.40169 2.50308,-2.42938 0.09666,-0.39936 0.08716,-1.09347 0.04596,-1.5055 -0.01978,-0.19888 -0.0058,-0.35894 -0.06814,-0.55465 -0.54911,-1.71309 -2.330339,-2.6877 -4.065613,-2.41592 z m -0.07924,0.62438 c 1.271745,-0.17115 2.402445,0.13866 3.174207,1.23688 0.206808,0.29396 0.198883,0.39302 0.302682,0.71313 0.564163,1.73607 -0.431043,3.362 -2.209107,3.76135 -0.511864,0.11568 -1.018189,0.0333 -1.505493,-0.126 -0.802666,-0.26147 -1.597406,-0.88586 -1.850961,-1.73367 0,0 -0.08399,-0.6339 -0.08399,-0.6339 -0.04679,-0.34706 -0.02537,-1.01978 0.07686,-1.34702 0.295548,-0.9437 1.182997,-1.59978 2.095798,-1.87077 z m 0.316944,3.21779 c 0.931025,0.19888 1.005511,1.33197 1.677436,1.60533 0.392215,0.15926 0.620418,-0.12362 0.466699,-0.49602 -0.09904,-0.24088 -0.828808,-1.2147 -1.034825,-1.42626 1.091087,-0.86129 0.421535,-2.12274 -0.950838,-2.13938 -0.235331,-0.002 -0.733725,-0.0435 -0.903293,0.12678 -0.152136,0.15214 -0.125981,0.46432 -0.126778,0.66558 0,0 0,2.53557 0,2.53557 0.0011,0.30347 -0.03806,0.75671 0.396183,0.75671 0.09825,0 0.198091,-0.0341 0.269405,-0.10222 0.141831,-0.13549 0.16798,-1.23688 0.206011,-1.52609 z m 0.1038,-1.61642 c 0.804248,-0.18304 0.828814,0.57842 0.36766,0.76542 -0.54911,0.22265 -0.718673,-0.46908 -0.36766,-0.76542 z m -55.410765,0.42787 c 0.13866,0.4881 0.07923,1.36524 0.07923,1.90168 0,0 0,3.40716 0,3.40716 -0.0011,0.47384 -0.02537,0.86288 -0.374788,1.2337 -0.477004,0.4984 -2.041127,0.4881 -2.526051,0 -0.485721,-0.48254 -0.348644,-1.75349 -0.347847,-2.42225 0.0017,-0.97143 0.380333,-1.12912 1.016602,-1.81927 0,0 2.152851,-2.30102 2.152851,-2.30102 z m 27.483127,0.0547 c 0.279705,0.0935 0.244047,0.22265 0.249593,0.49997 0,0 0,1.42625 0,1.42625 0,0 0,1.58474 0,1.58474 0,1.10216 0.05545,2.07995 -1.188544,2.53397 -0.190166,0.0697 -0.431049,0.1458 -0.633893,0.1458 -0.534843,-10e-4 -1.084745,-0.34231 -1.256687,-0.85734 -0.146585,-0.43977 -0.09667,-2.49832 -0.09033,-3.09021 0.0029,-0.26228 0.03171,-0.62994 0.134702,-0.8716 0.302683,-0.70997 1.050675,-0.83833 1.687735,-1.0491 0.441343,-0.1458 0.588724,-0.25435 1.097424,-0.32248 z m -62.1878525,11.414 c -0.6299298,0.34309 -0.7131272,0.78998 -0.7139209,1.44685 0,0 0,5.78425 0,5.78425 0.00151,1.09425 0.3811284,1.57918 1.5054893,1.58473 0,0 6.1012001,0 6.1012001,0 0.907256,-0.002 1.423876,-0.19017 1.426254,-1.18855 0,0 0,-6.49738 0,-6.49738 -0.0015,-0.91993 -0.268612,-1.18695 -1.188545,-1.18854 0,0 -4.6749459,0 -4.6749459,0 -0.5617836,0 -1.9943775,-0.0539 -2.4555316,0.0587 z m 0.5538598,0.5079 c 0,0 2.2186195,0 2.2186195,0 0,0 0.9508363,0.0666 0.9508363,0.0666 0,0 1.2677799,-0.0785 1.2677799,-0.0785 0,0 1.50549,0 1.50549,0 0.86447,0.002 1.266197,-0.0142 1.267783,0.95084 0,0 0,5.70502 0,5.70502 -0.0015,0.79316 -0.03328,1.02849 -0.8716,1.03007 0,0 -6.0219617,0 -6.0219617,0 -0.5720886,-0.001 -0.7804791,0.0119 -0.792365,-0.63389 0,0 0,-3.80335 0,-3.80335 0,0 0,-2.53556 0,-2.53556 0.0032,-0.46987 -0.00713,-0.57843 0.475418,-0.70124 z m 2.2978549,0.42788 c -1.1703223,0.39539 -1.8850333,1.0372 -2.3564893,2.17504 -0.1972979,0.47541 -0.2511795,0.49126 -0.2583103,1.03007 0,0 0,0.39618 0,0.39618 0.00634,0.52137 0.061803,0.56337 0.24484,1.03007 0.151343,0.38588 0.2424643,0.61329 0.5047367,0.95084 0.2456331,0.31694 0.647359,0.65528 0.9936218,0.85812 0.5800102,0.33993 1.1544738,0.48414 1.822437,0.52773 0.3549779,0.0229 0.6164599,-0.065 0.9508359,-0.15135 1.30423,-0.33834 2.607669,-1.55224 2.6148,-2.97771 0,0 0,-0.71313 0,-0.71313 0,-0.20521 0.0071,-0.435 -0.04358,-0.63388 -0.338339,-1.32166 -1.663172,-2.53318 -3.046638,-2.53557 -0.4460999,-10e-4 -0.9960006,-0.0309 -1.4262541,0.0435 z m 0.5546537,0.53642 c 0.8795251,-0.0958 1.9817011,0.19175 2.6045001,0.85021 0.298721,0.31695 0.506319,0.76938 0.622796,1.18459 0.06102,0.2179 0.146588,0.49126 0.164814,0.71313 0.07924,0.94607 -0.537224,2.07757 -1.331964,2.57755 -0.683809,0.43026 -1.129117,0.44213 -1.901673,0.43342 -0.4825483,-0.006 -0.5213753,-0.0435 -0.9508361,-0.2385 -1.108516,-0.50394 -1.6354382,-1.32959 -1.6631695,-2.53477 -0.00634,-0.29555 0.038822,-0.91993 0.1354918,-1.18855 0.3684512,-1.03165 1.3137384,-1.57204 2.3200407,-1.79708 z m 9.2706521,3.93647 c -0.899332,0.15847 -0.917555,-0.14342 -1.742405,-0.31694 -0.0729,0.25355 -0.142625,0.61169 0,0.85495 0.263856,0.4461 1.048294,0.49681 1.504695,0.49206 0.876355,-0.0102 1.886618,-0.65686 1.493607,-1.66397 -0.373204,-0.95796 -1.445271,-0.75987 -1.810551,-1.50549 1.214693,0 0.794741,0.11886 1.266196,0.19017 0.544355,0.0832 0.461158,-0.72184 0.214731,-0.90487 -0.08954,-0.0658 -0.336755,-0.13471 -0.450855,-0.17037 -1.472212,-0.46036 -2.636985,0.4366 -2.336679,1.43973 0.30823,1.02928 1.480136,0.80504 1.861261,1.58473 z m 4.516472,-2.06015 c -0.08082,-0.23533 -0.158471,-0.36211 -0.309021,-0.56099 -0.469872,-0.6228 -0.889034,-0.46909 -1.592652,-0.46909 0.152927,0.96986 1.141003,1.59346 1.380297,2.29787 0.04992,0.14895 0.04516,0.32011 0.04595,0.47542 0.0032,0.51265 -0.183827,1.27253 0.47542,1.33829 0.24167,0.0238 0.539601,10e-4 0.654491,-0.24721 0.151343,-0.32329 -0.04516,-1.2044 0.145004,-1.64574 0,0 0.899332,-1.26779 0.899332,-1.26779 0.147378,-0.19888 0.386675,-0.44373 0.402519,-0.7044 0.03011,-0.47701 -1.068105,-0.24802 -1.282834,-0.0697 -0.299515,0.24644 -0.29476,0.46909 -0.818512,0.85338 z m 5.229598,1.82243 c 0,0 0,0.16799 0,0.16799 -0.438968,0.15372 -0.576048,0.16323 -1.030072,0 -0.170356,-0.0483 -0.517413,-0.24484 -0.679056,-0.19175 -0.219486,0.0729 -0.318528,0.68618 0.05705,0.96589 0.877937,0.65449 3.020486,0.39618 2.900044,-1.02135 -0.112516,-1.3193 -1.475375,-0.99204 -1.881856,-1.82245 0.267815,0 0.618834,-0.0182 0.871598,0.0499 0.189375,0.0515 0.486506,0.22107 0.679053,0.13867 0.267025,-0.11252 0.202054,-0.61408 0.05469,-0.79871 -0.187792,-0.23613 -0.90963,-0.3946 -1.209147,-0.41282 -0.823262,-0.0499 -1.663166,0.34309 -1.663166,1.26066 0,0.28445 0.01267,0.4651 0.17828,0.70916 0.278912,0.40886 1.246389,0.76859 1.722597,0.9548 z m 20.997634,0 c -0.387473,0.45324 -0.692529,0.31775 -1.18855,0.10935 -0.190166,-0.0737 -0.532468,-0.26702 -0.665582,0 -0.03806,0.0706 -0.0444,0.20444 -0.04277,0.28684 0.0095,0.47304 0.295554,0.64498 0.708373,0.77731 0.358943,0.12757 1.237671,0.14341 1.584727,0 0.705993,-0.31219 1.144967,-1.09347 0.690149,-1.80024 -0.43184,-0.67193 -1.387426,-0.61251 -1.720221,-1.27493 0.267817,0 0.619626,-0.0206 0.8716,0.0539 0.189374,0.0562 0.476207,0.24009 0.665588,0.10141 0.192541,-0.14105 0.148167,-0.664 0,-0.82406 -0.219487,-0.23929 -0.977779,-0.37003 -1.299477,-0.35815 -1.105348,0.0404 -2.109276,0.99759 -1.26382,2.04034 0.330415,0.40648 1.167148,0.65924 1.660004,0.88823 z m -15.768038,-1.90167 c 0,0 0.713127,0 0.713127,0 0.162435,-0.002 0.381921,0.002 0.520587,-0.0927 0.236913,-0.16323 0.236913,-0.61408 0,-0.77731 -0.13312,-0.0912 -0.364489,-0.08 -0.520587,-0.0808 0,0 -2.535559,0 -2.535559,0 -0.35419,0.001 -0.715506,-0.0499 -0.780478,0.39777 -0.127569,0.87397 0.851787,0.38113 1.231334,0.63388 0.218689,0.1458 0.182241,0.48097 0.183033,0.71154 0,0 0,1.66397 0,1.66397 0.0011,0.1561 -0.0103,0.38747 0.08082,0.52059 0.128361,0.1862 0.426295,0.20443 0.630723,0.18382 0.458775,-0.046 0.471454,-0.31535 0.476999,-0.70441 0,0 0,-2.45633 0,-2.45633 z m 4.19953,2.22575 c -0.02379,-0.11093 -0.05784,-0.21393 -0.05307,-0.32249 0.03642,-0.90646 1.915142,0.16799 1.78361,-0.95083 -0.04515,-0.37954 -0.307436,-0.39143 -0.62121,-0.39777 -0.671924,-0.0119 -1.129122,0.17036 -1.188548,-0.55466 0.31219,0 1.515792,0.0539 1.718638,-0.0808 0.177486,-0.11885 0.464325,-0.85258 -0.450857,-0.87001 0,0 -1.663965,0 -1.663965,0 -0.232951,0.001 -0.552275,-0.0373 -0.699657,0.18304 -0.110135,0.16639 -0.09271,0.49205 -0.09271,0.68856 0,0 0,2.45633 0,2.45633 0.0023,0.17827 0.0011,0.44768 0.102216,0.59982 0.134698,0.20284 0.394595,0.18937 0.610911,0.19254 0,0 1.584726,0 1.584726,0 0.173526,0 0.462738,0.0167 0.609329,-0.0808 0.243255,-0.16243 0.244047,-0.69333 0,-0.86289 -0.267817,-0.17193 -1.326418,-0.0958 -1.639399,0 z m 4.75418,-1.11644 c 0.448475,0.29477 0.662417,0.67906 0.885069,0.73769 0.394595,0.10301 0.851793,-0.56099 1.09584,-0.81692 0,0 0,1.26778 0,1.26778 0,0.19016 -0.01902,0.51662 0.09271,0.67668 0.192546,0.26861 0.839905,0.24246 1.048296,0 0.151344,-0.17115 0.125986,-0.45958 0.126783,-0.67668 0,0 0,-2.53556 0,-2.53556 -0.0063,-0.44927 -0.03486,-0.70362 -0.554661,-0.71075 -0.186204,-0.002 -0.37637,0.0213 -0.54118,0.11251 -0.391428,0.2179 -0.631514,0.79871 -1.281252,1.15289 -0.145798,-0.29713 -0.751158,-1.0277 -1.033243,-1.17508 -0.145001,-0.0753 -0.311398,-0.0919 -0.47225,-0.0903 -0.585553,0.007 -0.553858,0.31615 -0.554649,0.78999 0,0 0,2.53556 0,2.53556 0,0.17115 -0.01746,0.4564 0.08081,0.59982 0.177493,0.25831 0.83674,0.2591 1.015018,0 0.152928,-0.22266 0.09271,-1.52531 0.09271,-1.86761 z"
       id="Selection"
       inkscape:connector-curvature="0"
       style="fill:#000003;fill-opacity:1;stroke:#000000;stroke-width:0.07923634" />
  </g>
</svg>
