<?xml version="1.0" encoding="UTF-8" standalone="no"?>
<!-- Created with Inkscape (http://www.inkscape.org/) -->

<svg
   xmlns:dc="http://purl.org/dc/elements/1.1/"
   xmlns:cc="http://creativecommons.org/ns#"
   xmlns:rdf="http://www.w3.org/1999/02/22-rdf-syntax-ns#"
   xmlns:svg="http://www.w3.org/2000/svg"
   xmlns="http://www.w3.org/2000/svg"
   xmlns:sodipodi="http://sodipodi.sourceforge.net/DTD/sodipodi-0.dtd"
   xmlns:inkscape="http://www.inkscape.org/namespaces/inkscape"
   width="260mm"
   height="260mm"
   viewBox="0 0 260 260"
   version="1.1"
   id="svg8"
   inkscape:version="0.92.5 (2060ec1f9f, 2020-04-08)"
   sodipodi:docname="icon.svg">
  <defs
     id="defs2" />
  <sodipodi:namedview
     id="base"
     pagecolor="#ffffff"
     bordercolor="#666666"
     borderopacity="1.0"
     inkscape:pageopacity="0.0"
     inkscape:pageshadow="2"
     inkscape:zoom="0.49497475"
     inkscape:cx="-537.8267"
     inkscape:cy="754.59273"
     inkscape:document-units="mm"
     inkscape:current-layer="layer1"
     showgrid="false"
     inkscape:window-width="2369"
     inkscape:window-height="1300"
     inkscape:window-x="72"
     inkscape:window-y="0"
     inkscape:window-maximized="0" />
  <metadata
     id="metadata5">
    <rdf:RDF>
      <cc:Work
         rdf:about="">
        <dc:format>image/svg+xml</dc:format>
        <dc:type
           rdf:resource="http://purl.org/dc/dcmitype/StillImage" />
        <dc:title></dc:title>
      </cc:Work>
    </rdf:RDF>
  </metadata>
  <g
     inkscape:label="Layer 1"
     inkscape:groupmode="layer"
     id="layer1"
     transform="translate(0,-37)">
    <path
       d="m 128.64068,208.76148 c -0.92869,-0.48948 -1.06892,-0.51064 -2.11667,-0.52916 0,0 -2.91041,0 -2.91041,0 -0.97632,-0.0132 -2.1008,-0.0503 -2.78342,-0.86784 -0.58738,-0.70114 -0.30692,-1.47902 -0.35983,-2.30716 0,0 -0.58209,-3.70417 -0.58209,-3.70417 -1.43668,-8.67304 -2.24102,-13.4276 -4.8551,-21.96042 -2.70933,-8.83973 -9.87689,-19.99191 -17.348729,-25.42116 -3.47662,-2.52677 -7.842252,-4.3524 -11.906252,-5.71236 -2.90248,-0.97102 -7.5512,-2.13783 -10.58333,-2.20398 1.82033,-0.51064 3.70417,0.17992 5.55625,0.26459 -1.30175,-0.60061 -5.6171,-1.03982 -7.14375,-1.05834 -5.22287,-0.0608 -10.35315,0.30957 -15.34583,1.98967 -9.70492,3.25967 -17.441336,10.60185 -21.465649,19.97075 -2.338916,5.44512 -1.80975,6.77333 -2.611437,12.17083 0,0 -0.738188,3.175 -0.738188,3.175 0,0 -0.629708,4.49792 -0.629708,4.49792 -0.07673,0.80962 -0.230187,1.2409 -0.193146,2.11667 0.269875,6.096 1.822979,10.51983 3.992563,16.13958 0,0 1.449916,4.49792 1.449916,4.49792 0.899584,2.7305 2.76225,6.12775 4.434417,8.46666 5.717642,8.001 12.236982,11.58346 21.317482,14.55209 0,0 7.14375,2.31775 7.14375,2.31775 0,0 4.7625,0 4.7625,0 2.86014,0.0688 4.79425,0.14816 7.67291,-0.3175 0,0 6.61459,-1.57163 6.61459,-1.57163 0,0 8.202082,-1.27794 8.202082,-1.27794 7.313079,-1.55575 17.581559,-6.69925 23.547909,-11.18129 0,0 5.55625,-4.68312 5.55625,-4.68312 0,0 2.38125,-2.33627 2.38125,-2.33627 0,0 -0.71966,5.82083 -0.71966,5.82083 -0.10319,0.88635 0.008,2.14577 -0.26459,2.91042 0,0 -3.16706,4.7625 -3.16706,4.7625 0,0 -3.3999,6.35 -3.3999,6.35 0,0 -0.93397,3.43958 -0.93397,3.43958 -0.83344,2.01877 -1.74361,2.81252 -1.89707,5.29167 -0.20108,3.21204 0.90223,6.31295 4.29684,7.19137 0.96043,0.30956 2.14577,0 3.175,0 0,1.3044 -0.42863,4.20688 0.43656,5.13027 0.73025,0.77788 1.78064,0.59531 2.73844,0.68792 0,0 2.38125,0.2196 2.38125,0.2196 2.02141,0.0238 2.62995,-0.17727 4.22804,1.34673 0.45244,0.43392 0.95779,0.96044 1.10331,1.56369 0.29633,0.67733 0.0582,1.67746 0,2.38125 0,0 -1.23296,5.79437 -1.23296,5.79437 -0.29898,0.64559 -3.3655,3.58246 -0.39423,5.31813 -0.23018,0.87842 -0.0556,1.60337 -0.79375,1.85208 0,0 0.26459,1.05834 0.26459,1.05834 0,0 -0.26459,-0.52917 -0.26459,-0.52917 -0.33073,0.71967 -1.06098,4.06665 0.74877,3.33375 1.35467,-0.55033 1.37848,-2.93158 1.3679,-4.1275 -0.037,-3.77296 0.1905,-2.32569 0.30956,-4.7625 0,0 0,-2.11667 0,-2.11667 0,0 0.64559,-3.96875 0.64559,-3.96875 0.14287,-0.76729 0.58472,-3.3655 0.93927,-3.88673 0.38629,-0.56356 1.20914,-0.74348 1.80975,-1.10066 2.59556,-1.54252 1.86531,-1.69334 5.29166,-1.28852 1.29911,0.1561 3.94759,0.57414 4.94507,-0.42069 0.81227,-0.81227 0.87312,-3.77825 0.87577,-4.94506 4.84716,-0.22225 11.57287,-1.56898 14.71348,-5.55625 3.82852,-4.8604 1.35731,-13.74511 -1.01336,-18.78542 -0.67733,-1.44198 -2.1246,-4.40002 -3.38137,-5.29167 0,0 -1.85209,-3.96875 -1.85209,-3.96875 -0.78052,-0.26193 -0.71437,-0.54504 -0.79375,-1.32291 0,0 -0.52916,-0.79375 -0.52916,-0.79375 -1.3388,-0.40217 -1.8468,-2.52677 -2.38125,-3.70417 0,0 -0.52917,0.26458 -0.52917,0.26458 0,0 -0.26458,-0.79375 -0.26458,-0.79375 0,0 0.52916,0.26459 0.52916,0.26459 0,0 -0.79375,-0.26459 -0.79375,-0.26459 0,0 0.26459,-0.79375 0.26459,-0.79375 -1.06363,-0.33866 -1.51077,-1.61131 -1.5875,-2.64583 0,0 -0.52917,0.26458 -0.52917,0.26458 0,0 0.26458,-0.79375 0.26458,-0.79375 0,0 -0.52916,0.26459 -0.52916,0.26459 0,0 0.26458,-0.79375 0.26458,-0.79375 -1.05304,-0.3519 -1.75419,-2.65907 -1.98438,-3.70417 -0.39952,-1.79123 0.381,-3.6539 1.03188,-5.29167 0,0 2.69875,-6.87916 2.69875,-6.87916 0,0 4.75721,-12.17084 4.75721,-12.17084 0,0 5.63827,-14.02291 5.63827,-14.02291 0,0 2.06375,-3.96875 2.06375,-3.96875 0,0 3.85498,-8.73125 3.85498,-8.73125 1.00277,-1.94469 3.33375,-5.35252 3.89996,-7.14375 0,0 0.52916,0 0.52916,0 0,0 2.76754,5.82083 2.76754,5.82083 0,0 4.26509,12.7 4.26509,12.7 0,0 1.76212,7.9375 1.76212,7.9375 0,0 1.04775,3.70417 1.04775,3.70417 0.87842,4.48204 1.2409,8.95085 1.5584,13.49375 0,0 0.24077,2.64583 0.24077,2.64583 0,0 -0.48419,5.82083 -0.48419,5.82083 0,0 -0.26458,3.96875 -0.26458,3.96875 0,0 -0.42333,5.82084 -0.42333,5.82084 0,0 -1.57957,7.9375 -1.57957,7.9375 -1.01335,5.05354 -1.67746,7.5512 -3.29671,12.43541 -0.51064,1.54252 -0.254,1.67482 -1.18004,3.43959 -2.13254,4.06929 -3.64596,6.17008 -6.77068,9.525 0,0 -1.88648,2.07168 -1.88648,2.07168 0,0 -3.38402,2.81252 -3.38402,2.81252 0,0 -2.58234,2.63525 -2.58234,2.63525 -0.64558,0.52123 -1.07156,0.34661 -1.96056,1.02923 -0.51858,0.39952 -1.48431,1.36525 -1.57427,2.03465 -0.12436,0.94985 1.35467,2.4421 2.32304,2.07169 1.64042,-0.62707 1.71979,-3.03477 2.7305,-4.18307 0.9525,-1.08743 1.70656,-1.28322 2.42623,-2.00289 0,0 6.52992,-6.73365 6.52992,-6.73365 0,0 -8.5778,13.22917 -8.5778,13.22917 -0.65352,1.0504 -2.8231,4.7969 -3.07975,5.82083 -0.2487,0.90488 0.10055,1.32292 0,2.11667 -0.19843,1.84944 -3.97404,3.49779 -1.64306,6.0034 0.4154,0.44714 0.59267,0.44185 1.12977,0.61118 0,0 1.06098,-2.64583 1.06098,-2.64583 0,0 0.18786,-1.85208 0.18786,-1.85208 0,0 2.45798,-6.87917 2.45798,-6.87917 0,0 8.74183,-13.49375 8.74183,-13.49375 0,0 3.42635,-5.82083 3.42635,-5.82083 0.0265,1.81239 -1.75948,5.00327 -2.41829,6.87916 0,0 -0.89429,3.43959 -0.89429,3.43959 -0.64558,1.97908 -2.24367,5.41866 -2.42623,7.40833 0,0 0,1.85208 0,1.85208 -0.0714,1.07421 -0.30427,0.97632 -0.3466,2.91042 -0.37571,0.12435 -0.55563,0.11112 -0.87313,0.42069 -0.50535,0.49477 -1.27,2.50825 -0.77258,3.12473 0.32544,0.40481 0.9181,0.38629 1.38112,0.42333 0,0 0.9234,-2.91042 0.9234,-2.91042 0,0 1.11654,-5.29166 1.11654,-5.29166 0,0 2.3151,-6.61459 2.3151,-6.61459 0,0 0.96044,-3.70416 0.96044,-3.70416 0,0 3.04536,-7.67292 3.04536,-7.67292 0,0 2.20927,-5.82083 2.20927,-5.82083 0,0 1.143,-2.06375 1.143,-2.06375 0,0 2.30981,0.21166 2.30981,0.21166 0,0 2.79135,-13.75833 2.79135,-13.75833 0,0 1.63248,-10.58333 1.63248,-10.58333 0.76465,-6.14627 0.61384,-12.33488 0.60325,-18.52084 -0.005,-3.76502 -1.85473,-15.46754 -2.81252,-19.31458 0,0 -3.79677,-13.75833 -3.79677,-13.75833 -0.32544,-1.05834 -0.86254,-3.89996 -1.91558,-4.28361 -0.56356,-0.28575 -1.46844,-0.0556 -2.05846,0 0,0 -3.175,-7.35806 -3.175,-7.35806 0,0 7.14375,-0.78846 7.14375,-0.78846 2.15635,0.0794 1.23825,1.01336 3.96875,1.05304 1.15358,0.0159 3.19617,-0.10318 4.17777,0.52388 0.65352,0.41804 1.14035,1.44991 1.53723,2.12196 0,0 2.413,3.96875 2.413,3.96875 3.02419,5.24668 5.96371,10.58068 8.38729,16.13958 0,0 2.41565,5.29167 2.41565,5.29167 1.81504,4.5376 2.65112,7.72583 3.73062,12.43541 0.6985,3.04271 1.41023,6.12246 1.41552,9.26042 0,0 0,5.82083 0,5.82083 0,0 -0.75406,7.9375 -0.75406,7.9375 -0.80169,6.70984 -2.08756,13.335 -3.89731,19.84375 0,0 -0.83609,3.43959 -0.83609,3.43959 0,0 -2.79929,8.20208 -2.79929,8.20208 0,0 -2.08756,5.29167 -2.08756,5.29167 0,0 -2.25954,3.175 -2.25954,3.175 0,0 -3.60892,3.96875 -3.60892,3.96875 0,0 -12.12321,15.34583 -12.12321,15.34583 0,0 -2.95804,3.43958 -2.95804,3.43958 -1.93939,2.36009 -3.72004,4.84188 -5.37104,7.40834 0,0 -5.18848,8.73125 -5.18848,8.73125 -0.67733,1.30439 -1.24883,1.09008 -1.50812,2.64583 -1.31234,-0.10583 -2.32569,0.6641 -2.90248,1.85208 -0.28575,0.58738 -0.33073,1.73832 0.37041,2.07169 1.09009,0.52123 2.5109,-1.88648 3.02684,-2.60085 1.55046,-2.13519 6.53521,-5.98223 8.76564,-7.90311 7.39511,-6.36587 14.08642,-15.54162 18.73779,-24.11148 0,0 5.67532,-11.90625 5.67532,-11.90625 1.16416,-2.31775 1.55575,-1.82562 2.41035,-2.94481 0.46567,-0.60854 0.67469,-1.46844 1.75419,-2.19075 0.72496,-0.48419 3.38667,-1.15887 3.48456,-3.06387 0.0503,-0.98161 -1.49225,-2.11403 -2.41829,-1.79123 -0.67469,0.23812 -1.016,0.94191 -1.3335,1.524 0.0794,-1.61132 1.54517,-5.94255 2.11667,-7.67292 0,0 1.94468,-7.67292 1.94468,-7.67292 1.28323,-5.588 3.07446,-15.84325 3.0824,-21.43125 0,0 0,-6.35 0,-6.35 0,0 -0.24077,-2.64583 -0.24077,-2.64583 -0.80433,-10.99873 -5.63563,-23.83631 -10.67594,-33.60208 0,0 -4.27567,-7.9375 -4.27567,-7.9375 0,0 -3.06387,-5.29167 -3.06387,-5.29167 3.39196,0.8255 5.3631,-0.25929 8.46667,-0.26458 0,0 5.55625,0 5.55625,0 2.02141,-0.0106 2.94481,-0.50536 5.02708,0 1.31498,-2.41565 0.86519,-3.85763 1.10331,-6.35 0,0 0.75936,-10.05417 0.75936,-10.05417 0,0 0,-2.64583 0,-2.64583 0,0 0.54239,-7.9375 0.54239,-7.9375 0,0 0.50536,-6.87917 0.50536,-6.87917 0,0 0.52916,-10.847916 0.52916,-10.847916 0,0 0.26459,-3.70417 0.26459,-3.70417 0,0 0.26458,-8.46666 0.26458,-8.46666 0,0 0.26458,-5.82084 0.26458,-5.82084 0,0 0.26459,-5.82083 0.26459,-5.82083 0,0 0.26458,-4.23333 0.26458,-4.23333 0,0 0.32544,-7.9375 0.32544,-7.9375 -0.0582,-2.00025 0.75406,-6.33678 0,-7.9375 -1.05834,-2.59557 -3.19617,-3.09563 -5.61711,-3.92378 0,0 -13.22916,-3.91583 -13.22916,-3.91583 -8.20738,-2.05052 -16.46767,-3.30729 -24.87084,-4.11162 0,0 -7.14375,-0.48419 -7.14375,-0.48419 0,0 -4.49791,-0.26458 -4.49791,-0.26458 0,0 -9.78959,0 -9.78959,0 0,0 -4.7625,0.26458 -4.7625,0.26458 -12.08881,0.13494 -27.15154,2.43681 -38.62916,6.26269 0,0 -4.7625,1.67481 -4.7625,1.67481 -3.556,1.21179 -6.60665,1.96321 -6.61458,6.35 0,0 0,19.31458 0,19.31458 0,0 0.26458,4.49792 0.26458,4.49792 0,0 0,18.78542 0,18.78542 0,0 0.26458,4.497916 0.26458,4.497916 0,0 0,5.29166 0,5.29166 0,0 0.26459,3.96875 0.26459,3.96875 0,0 0.26458,14.81667 0.26458,14.81667 0,0 0.26458,4.49792 0.26458,4.49792 0,0 0,6.87916 0,6.87916 0,0.59796 -0.0661,1.75154 0.30957,2.23044 0.35983,0.45508 1.02393,0.40481 1.54252,0.4154 0,0 4.23333,0.28575 4.23333,0.28575 0,0 5.02708,0 5.02708,0 1.7145,0.21166 1.8415,0.74348 3.96875,0.77258 0,0 6.35,-0.32015 6.35,-0.32015 0,0 1.85208,-0.46566 1.85208,-0.46566 0,0 2.63525,0 2.63525,0 1.32821,-0.23548 0.9234,-0.76465 2.921,-0.80169 0.64823,-0.0106 2.03729,-0.0794 2.56382,0.26987 0.79904,0.53446 0.86518,2.79136 0.87577,3.69888 0.0159,1.3626 -0.14023,4.39737 0.53181,5.52185 0.39423,0.66146 2.65642,1.85473 3.28083,3.4978 0,0 0.87577,6.85535 0.87577,6.85535 0,0 0.55563,5.55625 0.55563,5.55625 0,0 -0.21696,2.91042 -0.21696,2.91042 -0.0159,3.6142 0.18521,7.2681 -0.381,10.84791 0,0 -1.63777,6.87917 -1.63777,6.87917 0,0 -1.00806,5.02708 -1.00806,5.02708 -1.15623,3.29407 -3.42636,8.128 -5.22817,11.1125 0,0 -3.65125,5.55625 -3.65125,5.55625 z m 78.58125,-69.32083 c 0,0 0,2.38125 0,2.38125 0,0 -0.26458,0 -0.26458,0 0,0 0,-0.52917 0,-0.52917 0,0 0,1.05834 0,1.05834 0,0 -0.52917,-0.52917 -0.52917,-0.52917 -1.87854,0.24342 -3.56129,-0.9869 -5.29167,-1.56104 -1.10596,-0.36513 -3.556,-0.55298 -4.7625,-0.55563 0,0 -6.08541,-0.26458 -6.08541,-0.26458 0,0 -8.20209,0 -8.20209,0 0,0 -4.49791,-0.26458 -4.49791,-0.26458 0,0 -7.9375,0 -7.9375,0 0,0 -3.96875,-0.26459 -3.96875,-0.26459 0,0 -19.05,0 -19.05,0 0,0 -4.7625,-0.24606 -4.7625,-0.24606 0,0 -2.11667,0 -2.11667,0 0,0 -2.91042,0 -2.91042,0 0,0 -12.43541,0 -12.43541,0 -0.86784,-0.0159 -4.04284,0.20902 -4.7625,0.42598 -2.06111,0.62177 -3.8788,1.81504 -6.08542,1.93675 0,0 -1.34673,-13.75833 -1.34673,-13.75833 0,0 -0.52917,-7.9375 -0.52917,-7.9375 0,0 -0.24077,-2.91042 -0.24077,-2.91042 0,0 -0.27516,-4.23333 -0.27516,-4.23333 0,0 0,-2.64584 0,-2.64584 0,0 -0.254,-3.175 -0.254,-3.175 0,0 -0.26459,-7.143746 -0.26459,-7.143746 0,0 -0.26458,-3.96875 -0.26458,-3.96875 0,0 -0.26458,-7.14375 -0.26458,-7.14375 0,0 0,-5.02708 0,-5.02708 0,0 -0.29634,-3.96875 -0.29634,-3.96875 0,0 0,-7.40834 0,-7.40834 0,0 0,-3.175 0,-3.175 -0.0106,-2.7305 -0.48418,-6.94266 1.31498,-9.20485 1.07686,-1.35467 4.18042,-1.94204 5.86052,-2.39713 0,0 10.05417,-2.42093 10.05417,-2.42093 0,0 5.55625,-1.02659 5.55625,-1.02659 0.94192,-0.35719 1.35467,-0.93398 2.38125,-1.25148 0,0 5.02708,-0.67468 5.02708,-0.67468 0,0 7.67292,-0.48684 7.67292,-0.48684 0,0 3.96875,-0.26458 3.96875,-0.26458 0,0 17.19792,0 17.19792,0 0,0 4.23333,0.26458 4.23333,0.26458 4.62492,0.008 9.44827,0.48419 14.02292,1.17211 2.5982,0.38893 2.03464,0.80698 3.43693,1.32556 0,0 2.65113,0.58473 2.65113,0.58473 0,0 3.17235,0.54504 3.17235,0.54504 0,0 10.58334,2.89719 10.58334,2.89719 1.4605,0.45773 4.1275,0.96837 5.1435,2.04523 2.17487,2.29923 1.24089,8.78945 1.2065,11.80306 0,0 -0.26459,3.43958 -0.26459,3.43958 0,0 -0.26458,6.08542 -0.26458,6.08542 0,0 -0.50535,7.40833 -0.50535,7.40833 0,0 -0.79375,11.377087 -0.79375,11.377087 0,0 -1.39171,18.785419 -1.39171,18.785419 0,0 -0.43921,2.91041 -0.43921,2.91041 0,0 -0.24871,3.4634 -0.24871,3.4634 0,0 -1.11919,10.29494 -1.11919,10.29494 -0.10583,1.20385 -0.11906,3.4581 -1.05833,4.23333 z m -66.675,-86.518746 c 1.02658,0.7567 2.94746,0.69585 4.23333,0.86783 3.86292,0.52123 6.61988,0.98425 10.58334,0.98425 -2.83634,0.80433 -9.46415,-0.0582 -12.7,0 -0.58738,0.0132 -1.20915,-0.0132 -1.66688,0.42333 -0.67469,0.64294 -0.68527,1.88913 -0.71702,2.75167 0,0 -0.26194,5.02708 -0.26194,5.02708 0,0.60061 -0.0556,1.52665 0.26988,2.04259 0.58737,0.93397 2.97391,1.0451 3.96346,0.889 0,0 6.08541,-2.16959 6.08541,-2.16959 1.59279,-0.43391 3.17236,-0.17727 4.7625,0 -1.46314,0.4789 -3.63802,0.25136 -4.49791,1.61925 2.17487,0.28575 2.61143,0.25929 4.7625,0.26459 2.93423,0.005 1.55839,0.52387 4.49791,0.52916 0,0 4.23334,0 4.23334,0 0,0 3.96875,0.26459 3.96875,0.26459 0,0 7.40833,0 7.40833,0 0,0 3.175,-0.24078 3.175,-0.24078 1.3044,-0.09 3.34698,0.14817 4.31271,-0.93133 0.71437,-0.79639 0.70644,-2.05846 0.71437,-3.06123 0,0 -0.28046,0 -0.28046,0 0,0 0,0.52917 0,0.52917 0,0 0,-5.55625 0,-5.55625 -0.1561,-1.31233 -0.0899,-2.16429 -1.57162,-2.11667 -0.28046,-0.71966 -1.94998,-0.27781 -2.64583,-0.25929 0,0 -3.70417,0.25929 -3.70417,0.25929 0,0 -4.23333,0 -4.23333,0 1.80181,-0.59531 4.15131,-0.63235 6.08541,-0.81227 3.03213,-0.2831 3.26232,-0.84667 6.61459,-0.24606 -1.49225,-1.33879 -2.40771,-1.14036 -4.23598,-1.39436 0,0 -7.40569,-0.72231 -7.40569,-0.72231 0,0 -7.40833,-0.26458 -7.40833,-0.26458 -6.12246,-0.008 -16.56557,-0.0423 -22.37846,0.889 0,0 -1.96321,0.43392 -1.96321,0.43392 z m 39.95208,2.38125 c 0,0 0.79375,1.05833 0.79375,1.05833 0,0 -1.05833,1.32292 -1.05833,1.32292 0,0 0.26458,0.79375 0.26458,0.79375 0,0 0.26459,0 0.26459,0 0,0 0.52916,-0.52917 0.52916,-0.52917 0,0 0.79375,1.05833 0.79375,1.05833 0,0 0.26459,-1.85208 0.26459,-1.85208 0.64823,1.63248 0.33866,5.44248 -1.85473,5.75733 -1.60073,0.22754 -3.08504,-1.34937 -2.11402,-2.84691 0,0 -1.05834,0 -1.05834,0 0,0 0,-0.26459 0,-0.26459 0,0 0.52917,-0.52916 0.52917,-0.52916 0,0 -2.11667,1.5875 -2.11667,1.5875 -1.09802,-1.01336 -3.07975,-0.61384 -4.49791,-0.52917 0,0 0.52916,0.26458 0.52916,0.26458 0,0 -1.05833,0.26459 -1.05833,0.26459 0,0 2.38125,0.26458 2.38125,0.26458 -0.99483,0.64558 -4.74927,0.78052 -6.08542,0.79375 0,0 2.11667,-0.52917 2.11667,-0.52917 0,0 -0.52917,-0.26458 -0.52917,-0.26458 0,0 1.05834,-0.26458 1.05834,-0.26458 -1.93411,-0.64559 -2.03465,-0.0185 -3.70417,0.1561 -1.38113,0.14552 -1.90765,-0.33338 -3.175,0.63765 0,0 -0.52917,0 -0.52917,0 -2.21456,-1.88119 -7.78668,-0.75936 -10.58333,-0.79375 -1.15888,-0.0159 -4.2836,-0.93398 -5.55625,-1.32292 0,0 0.52917,0.52917 0.52917,0.52917 0,0 0,0.26458 0,0.26458 -2.11402,-0.38365 -4.58788,-2.17752 -5.29167,-4.23333 0,0 0.79375,0 0.79375,0 0,0 -0.26458,-0.79375 -0.26458,-0.79375 1.58485,0.26722 2.59291,1.73566 3.96875,2.5056 1.72243,0.96573 4.64343,1.37583 6.61458,1.45256 0,0 5.29167,-0.254 5.29167,-0.254 0,0 7.67291,0.52652 7.67291,0.52652 0,0 3.175,-0.26193 3.175,-0.26193 2.12725,-0.0238 3.98727,-0.003 6.08542,-0.5715 3.50837,-0.94986 3.89731,-2.68288 5.82083,-3.39725 z m -65.89183,47.360416 c 0,0 0.27517,0 0.27517,0 0,0 0,-0.52917 0,-0.52917 0,0 0.73818,8.74183 0.73818,8.74183 0,0 0,1.8415 0,1.8415 0,0 0.24607,3.43959 0.24607,3.43959 0.21166,1.60866 0.39158,1.57691 0.37041,3.43958 0,0 0.51594,5.44512 0.51594,5.44512 0.0159,2.00555 1.08215,2.21986 2.8919,2.31246 0.59531,0.0317 1.45256,0.09 1.84679,-0.45508 0.32544,-0.45244 0.26987,-1.4605 0.26987,-2.01083 0,0 0.26459,-6.35 0.26459,-6.35 0,0 0,-1.05834 0,-1.05834 0,0 0.26458,-3.70416 0.26458,-3.70416 0,0 0.74877,-10.31875 0.74877,-10.31875 1.37319,-13.734526 3.68829,-22.817666 7.18873,-35.983336 0,0 -11.37708,3.86292 -11.37708,3.86292 -1.15094,0.46831 -3.57982,1.31762 -4.27302,2.2516 -0.99748,1.34144 -0.70909,2.68287 -0.69057,4.20423 0,0 0,2.87602 0,2.87602 0,0 0.20109,3.73856 0.20109,3.73856 0,0 0.51858,8.46667 0.51858,8.46667 0,0 0,2.91042 0,2.91042 0,0 0,2.11667 0,2.11667 -0.082,1.828267 0.24077,2.704036 0,4.762496 z m 80.44392,34.925 c 0,0 -0.79375,-1.5875 -0.79375,-1.5875 0,0 0.52916,-1.05834 0.52916,-1.05834 0,0 -0.52916,0.79375 -0.52916,0.79375 0,0 0.59266,-1.05833 0.59266,-1.05833 0,0 0,-2.30981 0,-2.30981 0,0 -0.32808,-5.62769 -0.32808,-5.62769 0.13494,-0.12965 0.2249,-0.0635 0.4445,-0.40746 0,0 0,-4.05606 0,-4.05606 0,0 0,-7.70731 0,-7.70731 0.0132,-2.57705 0.29104,-5.15938 -0.4445,-7.67292 0,0 0.52917,0 0.52917,0 0,0 -0.67205,-9.524996 -0.67205,-9.524996 0,0 -0.84137,-6.87917 -0.84137,-6.87917 0,0 -1.50548,-10.05417 -1.50548,-10.05417 0,0 -1.32027,-5.82083 -1.32027,-5.82083 -0.1614,-0.76729 -0.33867,-2.24896 -0.84138,-2.81517 -0.44714,-0.50271 -1.82562,-0.889 -2.49237,-1.07685 0,0 -6.35,-1.34673 -6.35,-1.34673 0,0 -3.43958,-0.39158 -3.43958,-0.39158 -6.5114,-0.84932 -13.0175,-0.99219 -19.57917,-0.98425 0,0 -5.55625,0.26458 -5.55625,0.26458 -3.75708,0.0423 -11.13631,0.6985 -14.81667,1.34408 -1.07685,0.1905 -4.49262,0.78052 -5.17789,1.43669 -0.70644,0.67733 -0.84667,2.33627 -1.10067,3.30465 0,0 -1.85208,8.20208 -1.85208,8.20208 -1.23296,4.81012 -2.27013,13.18948 -2.76225,18.256246 0,0 -0.71702,8.73125 -0.71702,8.73125 0,0 -0.56092,12.7 -0.56092,12.7 0,0 0,8.20209 0,8.20209 0,0 -0.28575,4.07987 -0.28575,4.07987 -0.11113,0.71967 -0.38365,1.49225 0.21696,2.11138 0.49741,0.51329 1.52135,0.42068 2.18546,0.42598 0,0 25.13541,0 25.13541,0 0,0 4.49792,0 4.49792,0 0,0 3.96875,0.26193 3.96875,0.26193 0,0 11.1125,0 11.1125,0 0,0 4.49792,0.26459 4.49792,0.26459 0,0 7.67291,0 7.67291,0 2.75167,0.005 8.17298,0.68527 10.58334,0 z m -2.11667,-69.056256 c 0,0 1.6801,7.9375 1.6801,7.9375 0,0 2.17488,11.37709 2.17488,11.37709 1.37054,9.23396 2.21456,18.446746 2.23044,27.781246 0,0 0.25929,5.82083 0.25929,5.82083 0,0 0,4.49792 0,4.49792 -0.0185,0.6059 -0.18521,1.43404 0.37571,1.84679 0,0 5.18583,0.53446 5.18583,0.53446 0.86783,-3.00302 1.27529,-8.84502 1.62983,-12.17083 0,0 0.97102,-7.67292 0.97102,-7.67292 0,0 0.88371,-10.054166 0.88371,-10.054166 0,0 0.43392,-2.90777 0.43392,-2.90777 0,0 0.35983,-5.5589 0.35983,-5.5589 0,0 0.75936,-9.525 0.75936,-9.525 0.0741,-1.71714 0.65881,-2.83369 -0.31486,-4.49791 -1.00806,-1.72509 -2.96333,-2.56117 -4.72281,-3.32846 -2.59292,-1.12713 -9.26042,-3.53219 -11.90625,-4.07988 z m -47.30485,15.08125 c 0,0 2.32568,0 2.32568,0 0,0 0.26459,-5.29166 0.26459,-5.29166 0,0 4.23333,0 4.23333,0 0,0 0,7.67291 0,7.67291 0,0 -0.26458,5.55625 -0.26458,5.55625 0,0 -3.96875,0.26459 -3.96875,0.26459 0,0 -0.26459,-7.14375 -0.26459,-7.14375 0,0 -2.38125,0 -2.38125,0 0,0 0,4.7625 0,4.7625 0,0.52652 0.0609,1.53722 -0.26987,1.95791 -0.53975,0.68263 -3.65919,0.65088 -4.01638,-0.18785 -0.381,-0.6694 -0.0741,-5.32077 0,-6.26798 0,0 -2.59291,0 -2.59291,0 0,0 0,-1.05833 0,-1.05833 0,0 2.64583,-0.26459 2.64583,-0.26459 0,0 0,-5.02444 0,-5.02444 0,0 4.07458,0 4.07458,0 0,0 0.21432,1.58486 0.21432,1.58486 0,0 0,3.43958 0,3.43958 z m 18.21127,-4.32329 c 2.23308,-0.15081 2.14841,2.31775 0.98689,2.79929 -1.38906,0.57944 -3.28877,-1.50283 -0.98689,-2.79929 z m -1.86267,4.32329 c -1.16681,2.46327 0.0344,5.16467 -0.91281,6.85006 -0.59532,1.05569 -1.44727,1.07157 -2.52677,1.08744 0,0 -5.55625,0 -5.55625,0 0.72231,-2.32039 0.51858,-2.40771 0.52916,-4.7625 0.005,-0.79639 -0.037,-1.66423 0.46038,-2.34156 0.57944,-0.7964 1.29116,-0.81492 2.18546,-0.83344 0,0 5.82083,0 5.82083,0 z m 3.70417,0 c 0,0 0,7.9375 0,7.9375 0,0 -3.175,0 -3.175,0 0,0 0,-5.55625 0,-5.55625 0,0 0.42333,-2.11137 0.42333,-2.11137 0,0 2.75167,-0.26988 2.75167,-0.26988 z m 8.99583,8.19944 c 0,0 -4.7625,0 -4.7625,0 -0.71702,0.008 -1.71979,0.0529 -2.35215,-0.30692 -1.15887,-0.66146 -1.19856,-3.15118 -0.21166,-3.9661 0.65352,-0.53975 3.24908,-1.14036 4.15131,-1.28058 -0.381,-1.18269 -0.89694,-1.44728 -1.5875,-0.26459 -0.73554,0 -3.05858,0.27517 -2.71463,-1.05833 0.254,-0.98425 1.36261,-1.04246 2.18546,-1.05833 1.18798,-0.0212 4.07723,-0.26988 4.86834,0.64293 0.47095,0.53975 0.41804,1.3335 0.42333,2.0029 0,0 0,5.28902 0,5.28902 z m 37.04167,-8.19944 c 0,0 0,0.26459 0,0.26459 0,0 0.26458,-0.26459 0.26458,-0.26459 0,0 -0.26458,0 -0.26458,0 z m -31.48542,3.43959 c 0,0 0.52917,0 0.52917,0 0.67998,-1.43934 1.56368,-2.38655 3.175,-2.64584 0,0 -2.46857,3.43959 -2.46857,3.43959 0,0 2.20398,4.49791 2.20398,4.49791 -3.25702,0 -3.5851,0.32015 -5.02708,-2.91041 -1.57956,1.18533 -1.7436,2.32833 -3.70417,2.64583 0,0 2.50825,-3.43958 2.50825,-3.43958 0,0 -1.97908,-4.49792 -1.97908,-4.49792 2.96069,0 3.61156,-0.20902 4.7625,2.91042 z m -23.54792,0.52916 c 0.42598,-0.35719 0.7329,-0.59266 1.0504,-1.06891 0.26194,-0.39159 0.55827,-0.98425 0.37042,-1.46315 -0.18786,-0.4789 -0.80963,-0.61119 -1.15094,-0.20902 -0.30692,0.36248 -0.26723,1.22502 -0.26988,1.68275 0,0 0,1.05833 0,1.05833 z m 1.32292,-0.52916 c -1.32292,1.43933 -1.31498,1.54252 -1.32292,3.43958 0.37836,-0.0291 0.80963,-0.005 1.12713,-0.26194 0.72231,-0.58473 0.49477,-2.42094 0.19579,-3.17764 z m 13.22917,0.26458 c -1.5293,0.82285 -1.32292,0.94192 -1.32292,3.175 1.86531,-0.14817 1.90765,-1.69863 1.32292,-3.175 z M 114.61776,103.7219 c 0,0 0,0.26458 0,0.26458 0,0 0.26459,-0.26458 0.26459,-0.26458 0,0 -0.26459,0 -0.26459,0 z m 31.22084,95.25 c 0,0 1.05833,-0.26458 1.05833,-0.26458 -0.51065,1.12712 -0.10054,1.37583 0.52917,2.38125 0,0 -3.70417,-0.52917 -3.70417,-0.52917 0,0 0.26458,-5.02708 0.26458,-5.02708 0.0238,-1.97115 0.32544,-1.9738 0.48419,-3.43959 0,0 0.30956,-5.55625 0.30956,-5.55625 0,0 0.33867,-5.82083 0.33867,-5.82083 0.35719,-2.96069 1.02129,-5.842 1.7436,-8.73125 0.44715,-1.778 1.17211,-3.99256 1.06892,-5.82083 0,0 -0.24077,-3.175 -0.24077,-3.175 0,0 0,-7.14375 0,-7.14375 0,0 1.5875,-12.7 1.5875,-12.7 -0.0212,-1.88648 -0.3466,-1.66688 0,-3.70417 0,0 4.23333,0 4.23333,0 0,0 3.96875,0.26458 3.96875,0.26458 0,0 9.525,0 9.525,0 1.0504,0.003 3.13002,-0.0317 3.64861,1.11654 0.34396,0.75936 -0.53182,2.36803 -0.84932,3.1168 0,0 -2.7305,5.82083 -2.7305,5.82083 0,0 -1.24354,2.64583 -1.24354,2.64583 0,0 -6.72306,14.81667 -6.72306,14.81667 0,0 -8.39523,19.57917 -8.39523,19.57917 0,0 -4.87362,12.17083 -4.87362,12.17083 z M 82.074019,146.5844 c 0,0 1.85208,0.52917 1.85208,0.52917 0,0 -1.85208,-0.52917 -1.85208,-0.52917 z m -12.96459,81.49167 c 0,0 1.32292,-1.32292 1.32292,-1.32292 -1.90765,0.19579 -4.89215,-1.45256 -6.61458,-2.3151 -7.37923,-3.69888 -12.13909,-10.32669 -16.58144,-16.99948 -1.79917,-2.70405 -4.537604,-7.24694 -5.479521,-10.31875 -0.309563,-1.00542 -0.679979,-5.69648 -0.693208,-6.87917 0,0 0.264583,-4.49792 0.264583,-4.49792 0.01058,-2.00025 0.322792,-5.54037 0.931333,-7.40833 1.000125,-3.07975 4.061353,-7.5909 6.178023,-10.05417 2.03729,-2.37066 4.10898,-4.77837 6.64898,-6.6331 4.06929,-2.97392 11.59139,-5.79438 16.66875,-5.80231 0,0 4.23333,0 4.23333,0 6.84742,0.0106 14.05202,3.09298 19.579172,6.95325 3.39989,2.37595 4.39208,2.82575 7.143749,6.27591 5.52714,6.93209 6.68073,13.13127 7.32366,21.69584 0.11642,1.57691 -0.85195,6.25475 -1.27264,7.9375 -2.76225,11.05958 -11.019899,21.26191 -21.396861,26.01118 -3.72798,1.70657 -8.05656,2.82046 -12.17083,2.8284 -0.73025,0.003 -1.71715,-0.0714 -2.37067,0.26987 -0.76464,0.40217 -2.41829,3.06388 -3.45545,0.99484 0,0 -0.2593,-0.73554 -0.2593,-0.73554 z m 47.360421,-25.13542 c 0.16404,3.56658 1.1377,3.25967 0.97631,5.02708 -0.26194,2.89984 -3.80736,7.66498 -5.20965,10.58334 1.43404,-0.17992 1.4949,-1.21444 2.31246,-2.30717 1.87061,-2.48708 4.22275,-5.58271 4.30213,-8.80533 2.41564,2.55852 3.13266,3.54806 6.61458,4.7625 -3.31523,4.6302 -11.26596,9.17839 -16.40416,11.70516 -2.02407,0.99748 -6.05632,2.78077 -8.20209,3.1115 0,0 3.70152,-3.45016 3.70152,-3.45016 2.3839,-2.33627 6.02456,-7.10142 7.66498,-10.04359 0.889,-1.59279 2.16694,-4.59846 2.74373,-6.35 0.44979,-1.3626 0.70114,-3.05593 1.50019,-4.23333 z m 35.18958,3.43958 c 0,0 9.57792,15.61042 9.57792,15.61042 2.35479,3.89996 4.2545,6.83419 5.33135,11.37708 0.86254,3.64596 1.29117,8.18621 -1.09537,11.3665 -2.1299,2.84427 -7.747,4.20423 -11.16807,4.24392 0,0 -1.32291,0 -1.32291,0 0,0 0.79375,0.26458 0.79375,0.26458 -1.44463,0.47096 -1.56898,-0.74612 -1.5875,-1.85208 -0.0291,-1.89706 0.19843,-5.2996 0.52916,-7.14375 2.032,-0.0714 2.77019,-1.26471 3.80471,-2.91042 1.61131,-2.56116 3.26496,-5.07735 3.3364,-8.20208 0.0714,-3.18823 -0.83079,-4.95829 -3.17236,-7.11994 -2.34156,-2.159 -3.35491,-1.43139 -3.43429,-3.46869 0,0 0.21961,-4.7572 0.21961,-4.7572 0.0397,-0.50271 0.15081,-2.1934 0,-2.54 -0.41011,-0.66411 -1.33086,-0.25136 -1.8124,-0.83344 -0.50271,-0.60325 -0.2884,-3.30994 0,-4.0349 z m -23.8125,3.175 c -1.54252,2.07434 -2.17752,1.39965 -4.23333,0.52917 0,0 4.23333,-0.52917 4.23333,-0.52917 z m 25.15658,28.575 c 0,0 0,-2.64583 0,-2.64583 0.22225,-2.09815 0.69321,-3.38138 -1.60866,-4.49792 0,0 0.26458,-4.23333 0.26458,-4.23333 0,0 1.05833,0.26458 1.05833,0.26458 0,0 0.26459,-5.55625 0.26459,-5.55625 1.45256,0.27517 2.36537,0.84138 3.429,1.8759 3.05329,2.97392 2.52148,7.40304 0.57414,10.8241 -0.48419,0.84932 -1.96056,3.4634 -2.76489,3.81794 -0.38365,0.16669 -0.83344,0.13758 -1.21709,0.15081 z m -12.45658,17.99167 c 0,0 -1.05833,0.79375 -1.05833,0.79375 0.29898,-0.71702 0.29898,-0.64823 1.05833,-0.79375 z"
       id="Selection-7"
       inkscape:connector-curvature="0"
       style="fill:#000000;fill-opacity:1;stroke:#000000;stroke-width:0.26458332" />
  </g>
</svg>
