<?xml version="1.0" encoding="UTF-8" standalone="no"?>
<!-- Created with Inkscape (http://www.inkscape.org/) -->

<svg
   xmlns:dc="http://purl.org/dc/elements/1.1/"
   xmlns:cc="http://creativecommons.org/ns#"
   xmlns:rdf="http://www.w3.org/1999/02/22-rdf-syntax-ns#"
   xmlns:svg="http://www.w3.org/2000/svg"
   xmlns="http://www.w3.org/2000/svg"
   xmlns:sodipodi="http://sodipodi.sourceforge.net/DTD/sodipodi-0.dtd"
   xmlns:inkscape="http://www.inkscape.org/namespaces/inkscape"
   width="260mm"
   height="260mm"
   viewBox="0 0 260 260"
   version="1.1"
   id="svg8"
   inkscape:version="0.92.5 (2060ec1f9f, 2020-04-08)"
   sodipodi:docname="icon.svg">
  <defs
     id="defs2" />
  <sodipodi:namedview
     id="base"
     pagecolor="#ffffff"
     bordercolor="#666666"
     borderopacity="1.0"
     inkscape:pageopacity="0.0"
     inkscape:pageshadow="2"
     inkscape:zoom="0.7"
     inkscape:cx="-735.89851"
     inkscape:cy="368.52549"
     inkscape:document-units="mm"
     inkscape:current-layer="layer1"
     showgrid="false"
     inkscape:window-width="3368"
     inkscape:window-height="1403"
     inkscape:window-x="72"
     inkscape:window-y="0"
     inkscape:window-maximized="1" />
  <metadata
     id="metadata5">
    <rdf:RDF>
      <cc:Work
         rdf:about="">
        <dc:format>image/svg+xml</dc:format>
        <dc:type
           rdf:resource="http://purl.org/dc/dcmitype/StillImage" />
        <dc:title></dc:title>
      </cc:Work>
    </rdf:RDF>
  </metadata>
  <g
     inkscape:label="Layer 1"
     inkscape:groupmode="layer"
     id="layer1"
     transform="translate(0,-37)">
    <path
       style="fill:#000000;fill-opacity:1;stroke-width:0;stroke-miterlimit:4;stroke-dasharray:none;stroke-dashoffset:0"
       d="m 115.29174,292.78198 c -9.85346,-1.15586 -15.765779,-2.42509 -19.121419,-4.1049 -3.73103,-1.86778 -4.10086,-2.51445 -5.07719,-8.87797 -0.2711,-1.76704 -0.65342,-3.63429 -0.84958,-4.14944 -0.22923,-0.60196 -0.21762,-1.4123 0.0325,-2.26786 0.26218,-0.89691 0.39861,-33.8242 0.4182,-100.92794 0.0247,-84.753506 -0.0504,-99.836134 -0.50393,-101.203186 -0.43318,-1.305642 -0.45142,-2.084218 -0.0974,-4.157739 0.23959,-1.4032 0.61164,-5.017564 0.82678,-8.031925 0.95887,-13.434901 2.23709,-14.560812 18.725499,-16.494157 8.10686,-0.950568 33.56585,-0.942415 42.49922,0.01361 10.70525,1.145647 14.24185,2.107616 16.562,4.504929 1.7985,1.858314 2.27592,3.499075 2.89858,9.961549 0.31705,3.290552 0.77054,7.088399 1.00776,8.439663 0.23722,1.351267 0.39126,3.094681 0.3423,3.874257 -0.15287,2.434116 -0.21833,171.936599 -0.0732,189.460559 0.11779,14.21951 0.0464,17.17392 -0.49222,20.37564 -0.68978,4.1001 -1.37979,6.09707 -2.38987,6.91662 -5.02942,4.08069 -26.06849,7.91617 -31.27352,5.70126 -1.22719,-0.52223 -2.77372,-0.6465 -8.21236,-0.65997 -6.24779,-0.0154 -6.87004,0.0472 -9.21092,0.92834 -2.3778,0.89501 -3.36216,1.00941 -6.01125,0.69866 z m 6.82583,-24.8771 c 0.67484,-0.51043 0.5708,-0.55591 -1.29696,-0.56697 -1.76287,-0.0104 -1.96861,0.0627 -1.56012,0.55495 0.59883,0.72154 1.91171,0.72706 2.85708,0.012 z m 20.19947,-0.95696 c 0,-0.20789 -0.18013,-0.37798 -0.40029,-0.37798 -0.22015,0 -0.29516,0.17009 -0.16667,0.37798 0.12848,0.20788 0.30861,0.37797 0.40028,0.37797 0.0917,0 0.16668,-0.17009 0.16668,-0.37797 z m 1.46101,-3.98804 c 0.11947,-0.61652 0.0558,-0.64428 -0.47247,-0.20588 -0.72241,0.59955 -0.81236,1.30029 -0.13809,1.07579 0.25986,-0.0865 0.5346,-0.47798 0.61056,-0.86991 z m -25.27351,0.20828 c 0,-0.20789 -0.18013,-0.37798 -0.40028,-0.37798 -0.22016,0 -0.29517,0.17009 -0.16668,0.37798 0.12848,0.20788 0.3086,0.37797 0.40028,0.37797 0.0917,0 0.16668,-0.17009 0.16668,-0.37797 z m 7.98484,-10.77232 0.2412,-1.13393 0.0447,1.22842 c 0.0445,1.22367 0.52293,1.60563 1.01459,0.81009 0.18053,-0.29209 0.35322,-0.26515 0.57227,0.0893 0.24812,0.40146 0.55059,0.41821 1.4464,0.0801 0.78871,-0.29771 1.17328,-0.30575 1.26636,-0.0265 0.081,0.24297 0.34467,0.17519 0.66897,-0.17197 0.44934,-0.48103 0.61718,-0.49111 1.0455,-0.0628 0.61479,0.6148 2.0373,0.66784 2.6079,0.0972 0.29868,-0.29868 0.6266,-0.29868 1.18468,0 1.05416,0.56417 1.02755,0.59073 1.02755,-1.02593 v -1.43891 l -4.63871,0.0215 c -4.56487,0.0212 -4.63871,0.008 -4.6388,-0.82894 -6e-5,-0.59843 -0.2241,-0.85045 -0.75604,-0.85045 -0.51672,0 -0.77224,0.26915 -0.80743,0.85045 l -0.0515,0.85045 -0.1638,-0.85045 c -0.21662,-1.12465 -2.00111,-1.2288 -2.00111,-0.1168 0,0.4035 -0.18491,0.84792 -0.41091,0.9876 -0.2959,0.18287 -0.2959,0.36897 0,0.66487 0.226,0.226 0.41091,0.81394 0.41091,1.30654 0,1.40568 1.6216,1.004 1.93722,-0.47986 z m 6.00028,-2.45685 c 0,-0.20789 -0.35022,-0.37798 -0.77826,-0.37798 -0.42805,0 -0.67314,0.17009 -0.54466,0.37798 0.12848,0.20789 0.4787,0.37797 0.77826,0.37797 0.29956,0 0.54466,-0.17008 0.54466,-0.37797 z m 12.47321,-4.71013 c 0,-0.16032 -1.21245,-0.52601 -3.87425,-1.16853 -1.49738,-0.36145 -1.32387,0.48325 0.18899,0.92007 1.31036,0.37836 3.68526,0.53847 3.68526,0.24846 z m -24.00149,-0.58154 c 0.12849,-0.20788 0.0635,-0.37797 -0.14437,-0.37797 -0.20789,0 -0.4831,0.17009 -0.61158,0.37797 -0.12848,0.20789 -0.0635,0.37798 0.14438,0.37798 0.20788,0 0.48309,-0.17009 0.61157,-0.37798 z m 7.30115,-1.03943 c -0.0997,-0.86612 -0.32443,-1.05918 -1.34802,-1.15788 -1.14435,-0.11033 -1.22842,-0.0392 -1.22842,1.03943 0,1.07542 0.096,1.15788 1.34802,1.15788 1.24758,0 1.33911,-0.0774 1.22842,-1.03943 z m 2.49532,0.81 c 0.32884,-0.12618 0.60305,-0.50888 0.60937,-0.85044 0.009,-0.49954 0.0941,-0.47314 0.43373,0.13493 0.23222,0.41578 0.46211,0.80676 0.51086,0.86885 0.0488,0.0621 0.53394,10e-4 1.07819,-0.13548 0.99715,-0.25027 1.31625,-1.19291 0.63851,-1.8862 -0.19306,-0.19749 -0.40568,-0.94129 -0.47247,-1.65288 -0.10961,-1.16777 -1.06638,-2.2153 -1.06638,-1.16754 0,0.46246 -0.91621,1.51641 -1.31823,1.51641 -0.13106,0 -0.13317,-0.17009 -0.005,-0.37798 0.12848,-0.20789 -0.11661,-0.37797 -0.54466,-0.37797 -0.54321,0 -0.77826,0.24425 -0.77826,0.80877 0,0.44483 -0.27667,1.01109 -0.61481,1.25835 -0.50065,0.36607 -0.53328,0.60195 -0.1757,1.27009 0.46401,0.867 0.73796,0.96201 1.70454,0.59109 z m 5.40341,-0.005 c 0.76065,-0.20392 0.82943,-0.43558 0.75595,-2.54618 -0.0767,-2.20311 -0.12915,-2.32185 -1.02577,-2.32185 -0.90357,0 -0.94983,0.1117 -1.0567,2.55134 -0.0615,1.40323 0.0236,2.54901 0.18899,2.54618 0.16541,-0.003 0.6773,-0.10612 1.13753,-0.2295 z m -10.0972,-4.67905 c -0.7328,-0.47357 -1.13393,-0.47357 -1.13393,0 0,0.20789 0.38271,0.37537 0.85045,0.37219 0.6877,-0.005 0.74195,-0.0759 0.28348,-0.37219 z m -4.37763,-0.6074 c 0.32883,-0.12619 0.59787,-0.37707 0.59787,-0.55752 0,-0.38874 -2.2979,-0.0142 -2.81592,0.45895 -0.4121,0.37643 1.29612,0.45234 2.21805,0.0986 z m 22.14251,-0.14855 c 0.81977,-0.26254 0.74467,-0.30685 -0.56696,-0.33451 -0.83155,-0.0175 -1.76704,0.13299 -2.07887,0.33451 -0.43186,0.27909 -0.29676,0.3588 0.56697,0.33451 0.62366,-0.0175 1.55915,-0.16807 2.07886,-0.33451 z m -21.41711,-2.88501 c 0.95972,-0.13154 1.64873,-0.39483 1.53114,-0.58509 -0.23523,-0.38061 -3.40324,-0.026 -4.3045,0.48182 -0.72173,0.40667 0.2861,0.44419 2.77336,0.10327 z m 21.79509,-0.1388 c 0,-0.20789 -0.93549,-0.37798 -2.07887,-0.37798 -1.14338,0 -2.07887,0.17009 -2.07887,0.37798 0,0.20789 0.93549,0.37798 2.07887,0.37798 1.14338,0 2.07887,-0.17009 2.07887,-0.37798 z"
       id="path1489"
       inkscape:connector-curvature="0" />
  </g>
</svg>
