<?xml version="1.0" encoding="UTF-8" standalone="no"?>
<!-- Created with Inkscape (http://www.inkscape.org/) -->

<svg
   xmlns:dc="http://purl.org/dc/elements/1.1/"
   xmlns:cc="http://creativecommons.org/ns#"
   xmlns:rdf="http://www.w3.org/1999/02/22-rdf-syntax-ns#"
   xmlns:svg="http://www.w3.org/2000/svg"
   xmlns="http://www.w3.org/2000/svg"
   xmlns:sodipodi="http://sodipodi.sourceforge.net/DTD/sodipodi-0.dtd"
   xmlns:inkscape="http://www.inkscape.org/namespaces/inkscape"
   width="260mm"
   height="260mm"
   viewBox="0 0 260 260"
   version="1.1"
   id="svg8"
   inkscape:version="0.92.5 (2060ec1f9f, 2020-04-08)"
   sodipodi:docname="icon.svg">
  <defs
     id="defs2" />
  <sodipodi:namedview
     id="base"
     pagecolor="#ffffff"
     bordercolor="#666666"
     borderopacity="1.0"
     inkscape:pageopacity="0.0"
     inkscape:pageshadow="2"
     inkscape:zoom="0.49497475"
     inkscape:cx="-479.85542"
     inkscape:cy="362.88712"
     inkscape:document-units="mm"
     inkscape:current-layer="layer1"
     showgrid="false"
     inkscape:window-width="2539"
     inkscape:window-height="1386"
     inkscape:window-x="72"
     inkscape:window-y="0"
     inkscape:window-maximized="0" />
  <metadata
     id="metadata5">
    <rdf:RDF>
      <cc:Work
         rdf:about="">
        <dc:format>image/svg+xml</dc:format>
        <dc:type
           rdf:resource="http://purl.org/dc/dcmitype/StillImage" />
        <dc:title></dc:title>
      </cc:Work>
    </rdf:RDF>
  </metadata>
  <g
     inkscape:label="Layer 1"
     inkscape:groupmode="layer"
     id="layer1"
     transform="translate(0,-37)">
    <path
       d="m 123.86489,41.046192 c 0,0 -4.23069,0.94456 -4.23069,0.94456 0,0 -2.3839,1.43669 -2.3839,1.43669 0,0 -0.52916,1.32292 -0.52916,1.32292 0,0 -0.26459,0.79375 -0.26459,0.79375 0,0 -0.26458,0.79375 -0.26458,0.79375 -0.11377,1.21973 -1.47373,4.953 -1.9394,6.35 -0.23018,0.69056 -0.58208,2.01612 -1.10595,2.48973 -0.71438,0.64558 -5.01121,1.03187 -6.21507,1.2356 0,0 -3.43958,0.6985 -3.43958,0.6985 0,0 -8.731249,1.17475 -8.731249,1.17475 0,0 -4.7625,0.48684 -4.7625,0.48684 -0.83608,0.53445 -1.93675,0.49212 -2.91041,0.65616 -1.44198,0.24342 -4.93448,0.98425 -6.08013,1.72244 -2.56646,1.65365 -2.27277,6.54315 -2.70668,9.26306 0,0 -1.00278,2.91042 -1.00278,2.91042 0.89959,0.3466 0.78317,1.8071 0.79375,2.64583 0,0 0,12.96459 0,12.96459 0,0 0,49.477078 0,49.477078 0,0 0,47.09583 0,47.09583 0,0 -0.26458,3.96875 -0.26458,3.96875 0,0 0,43.39166 0,43.39166 0,0 -0.26458,3.96875 -0.26458,3.96875 0,0 0,24.34167 0,24.34167 -0.005,3.3311 -1.06892,3.28083 -0.95515,5.02708 0.09,1.36525 0.96573,2.45269 1.17211,3.96875 0,0 1.05304,8.73125 1.05304,8.73125 0.37571,1.99232 0.23019,2.67229 1.71979,4.22011 1.78329,1.85473 4.43706,3.08768 6.79979,4.03489 3.76502,1.51077 6.59342,2.42359 10.58333,3.22792 4.180419,0.84137 12.906369,2.44475 16.933329,2.53735 3.92377,0.0873 4.09575,-1.57691 8.99584,-1.57427 0,0 3.175,0 3.175,0 0,0 3.175,0.254 3.175,0.254 0,0 11.1125,0 11.1125,0 4.07723,0.005 5.54037,1.93146 8.99583,2.09021 0,0 10.05417,-0.99748 10.05417,-0.99748 6.40556,-0.889 12.90108,-2.05052 19.05,-4.09046 3.25966,-1.08479 7.94808,-2.87866 10.26318,-5.47952 2.17223,-2.43946 2.62467,-7.90046 3.00567,-11.10191 0,0 0.39158,-3.43959 0.39158,-3.43959 0.22755,-0.80698 0.76465,-1.524 0.78846,-2.38125 0.0397,-1.524 -0.94985,-1.39171 -0.95514,-4.49791 0,0 0,-18.78542 0,-18.78542 0,0 0,-40.21667 0,-40.21667 0,0 -0.26459,-3.96875 -0.26459,-3.96875 0,0 0,-21.96041 0,-21.96041 0,0 0,-43.92083 0,-43.92083 0,0 0,-29.89791 0,-29.89791 0,0 0.26459,-4.497918 0.26459,-4.497918 0,0 0,-10.58334 0,-10.58334 0,0 0,-11.90625 0,-11.90625 0.0106,-0.8255 -0.0741,-2.02406 0.79375,-2.38125 0,0 -1.03717,-3.175 -1.03717,-3.175 0,0 0,-2.11666 0,-2.11666 0,0 -0.74613,-3.43959 -0.74613,-3.43959 0,0 -1.12712,-3.175 -1.12712,-3.175 0,0 -0.79375,-0.79375 -0.79375,-0.79375 0,0 -0.52917,-0.26458 -0.52917,-0.26458 0,0 -7.67291,-1.55311 -7.67291,-1.55311 0,0 -10.04359,-1.49225 -10.04359,-1.49225 0,0 -6.096,-0.69056 -6.096,-0.69056 0,0 -5.29166,-0.87312 -5.29166,-0.87312 -0.7038,-0.0979 -1.75419,-0.13759 -2.30982,-0.57679 -0.73554,-0.58209 -1.21708,-2.37596 -1.50548,-3.28084 0,0 -2.18281,-6.35 -2.18281,-6.35 -0.46566,-1.38112 -0.77787,-2.56116 -2.20927,-3.22791 -1.40758,-0.65353 -4.57464,-1.03717 -6.19125,-1.26207 0,0 -3.06387,-0.48948 -3.06387,-0.48948 0,0 -11.64167,-0.3122 -11.64167,-0.3122 0,0 -7.40833,0.52916 -7.40833,0.52916 z m 33.86666,14.55209 c 0,0 0,0.26458 0,0.26458 0,0 -0.26458,-0.26458 -0.26458,-0.26458 0,0 0.26458,0 0.26458,0 z m 35.45417,17.4625 c -1.2991,2.10079 -0.79375,5.98487 -0.79375,8.46666 0,0 0,15.08125 0,15.08125 0,0 -0.26458,3.968758 -0.26458,3.968758 0,0 0,34.925 0,34.925 0,0 0,62.97082 0,62.97082 0,0 0.26458,3.96875 0.26458,3.96875 0,0 0,19.84375 0,19.84375 0,0 0,33.3375 0,33.3375 0,0 0,7.14375 0,7.14375 0.005,0.85725 -0.0556,3.05594 0.79375,3.43958 -0.37835,1.98702 -1.75948,3.33111 -3.43958,4.37357 -0.87048,0.54239 -2.54794,1.00277 -2.91042,1.97643 0,0 -6.35,2.0029 -6.35,2.0029 -5.94519,1.69862 -12.87198,3.02419 -19.05,3.02419 0.78052,-2.40507 0.52652,-4.90538 0.52917,-7.40834 0,0 0.26458,-4.49791 0.26458,-4.49791 0,0 0,-6.87917 0,-6.87917 0,0 0.52917,-8.46667 0.52917,-8.46667 0,0 0.26458,-7.40833 0.26458,-7.40833 0,0 0.26458,-3.96875 0.26458,-3.96875 0,0 0,-23.01875 0,-23.01875 -0.003,-1.1139 0.0688,-2.21721 -0.6641,-3.1459 -0.32279,-0.4101 -0.70379,-0.70114 -1.18798,-0.89164 -0.95779,-0.37836 -5.91873,-0.72496 -7.14375,-0.72496 0,0 1.5875,0.26458 1.5875,0.26458 0,0 -7.40833,-0.26458 -7.40833,-0.26458 0,0 2.11666,-0.26458 2.11666,-0.26458 -1.94468,-0.55298 -8.763,-0.52652 -11.1125,-0.52917 0,0 -4.23333,-0.26458 -4.23333,-0.26458 0,0 -5.29167,0 -5.29167,0 0,0 -4.23333,0.26458 -4.23333,0.26458 0,0 -3.70417,0 -3.70417,0 0,0 -3.43958,0.26458 -3.43958,0.26458 0,0 -7.40833,0.50536 -7.40833,0.50536 -1.41817,0.10318 -2.59292,-0.0106 -3.50838,1.35996 -0.72496,1.08479 -0.4445,4.15925 -0.46037,5.54302 0,0 -0.26459,3.96875 -0.26459,3.96875 0,0 0,7.40833 0,7.40833 0,0 -0.26458,4.23333 -0.26458,4.23333 0,0 0,5.29167 0,5.29167 0,0 0.26458,4.49792 0.26458,4.49792 0,0 0,6.61458 0,6.61458 0,0 0.26459,3.70417 0.26459,3.70417 0,0 0,14.81666 0,14.81666 0,3.04271 -0.25665,6.096 0.79375,8.99584 0,0 -6.88975,-0.65088 -6.88975,-0.65088 0,0 -9.514419,-1.89706 -9.514419,-1.89706 -1.41816,-0.36513 -4.77572,-1.05569 -5.55625,-2.21456 0,0 -0.52916,0.26458 -0.52916,0.26458 -0.85725,-0.75671 -2.02406,-1.28323 -3.175,-1.32292 0,0 0,-0.52916 0,-0.52916 -1.58486,-0.003 -2.71727,-0.97367 -3.96875,-1.85209 -0.13494,-1.36525 -0.9525,-1.88648 -0.93398,-2.86543 0.0212,-0.99748 0.6641,-0.50271 0.66939,-3.48457 0,0 0,-10.31875 0,-10.31875 0,0 0.26459,-3.96875 0.26459,-3.96875 0,0 0,-58.20833 0,-58.20833 0,0 0.26458,-3.96875 0.26458,-3.96875 0,0 0,-34.13125 0,-34.13125 0,0 0,-77.522908 0,-77.522908 0,-0.56356 -0.0609,-1.51606 0.26988,-1.98173 0.61118,-0.8599 3.69623,-1.1086 4.7572,-1.23296 0,0 12.7,-1.02923 12.7,-1.02923 0,0 2.91042,-0.254 2.91042,-0.254 0,0 5.820829,-0.27516 5.820829,-0.27516 0,0 3.70417,0 3.70417,0 0,0 3.175,-0.254 3.175,-0.254 0,0 4.7625,0 4.7625,0 0,0 3.96875,-0.26459 3.96875,-0.26459 0,0 24.60625,0 24.60625,0 0,0 4.49791,0.26459 4.49791,0.26459 0,0 7.67292,0 7.67292,0 0,0 4.49792,0.26458 4.49792,0.26458 0,0 14.55208,0.76994 14.55208,0.76994 5.15144,0.35454 11.75015,0.68262 16.66875,2.14048 z M 123.6003,210.6441 c 0,0 -6.08541,0.52917 -6.08541,0.52917 0,0 6.08541,-0.52917 6.08541,-0.52917 z m -1.05833,4.23334 c 0,0 0,0.26458 0,0.26458 0,0 -0.26458,-0.26458 -0.26458,-0.26458 0,0 0.26458,0 0.26458,0 z m -1.32292,0.26458 c 0,0 -3.70416,0.26458 -3.70416,0.26458 0,0 3.70416,-0.26458 3.70416,-0.26458 z m 21.16667,0.26458 c 0,0 -4.49792,0.26459 -4.49792,0.26459 0,0 -8.99583,-0.26459 -8.99583,-0.26459 0,0 4.23333,-0.26458 4.23333,-0.26458 0,0 5.02709,0 5.02709,0 0,0 4.23333,0.26458 4.23333,0.26458 z m 5.82083,-0.26458 c 0,0 0,0.26458 0,0.26458 0,0 -0.26458,-0.26458 -0.26458,-0.26458 0,0 0.26458,0 0.26458,0 z m -21.16666,0.26458 c 0,0 0,0.26459 0,0.26459 0,0 -0.26459,-0.26459 -0.26459,-0.26459 0,0 0.26459,0 0.26459,0 z m 29.10416,0.26459 c 0,0 -6.87916,0 -6.87916,0 1.62718,-0.64559 5.00062,-0.005 6.87916,0 z m -30.69166,0 c 0,0 6.87916,0.26458 6.87916,0.26458 0,0 11.90625,0 11.90625,0 -0.75671,1.35731 -0.52916,2.71462 -0.52916,4.23333 -0.56621,0 -1.78065,0.0794 -2.2225,-0.26987 -0.6403,-0.50536 -0.42334,-2.88396 -0.42334,-3.69888 0,0 -13.75833,0 -13.75833,0 0,0 1.05833,0.26459 1.05833,0.26459 0,0 0,0.52916 0,0.52916 -0.96837,-0.0132 -1.44991,0.17463 -1.85208,-0.79375 -1.12448,1.59015 -0.7964,2.88661 -0.79375,4.7625 0.005,2.29659 0.19844,2.89454 2.64583,2.91042 0,0 13.49375,0 13.49375,0 0.7329,-0.003 1.70392,0.0767 2.29923,-0.42333 0.96838,-0.81492 0.61119,-5.10646 0.61119,-6.45584 0.4445,1.12184 0.26723,3.23057 0.26458,4.49792 -0.005,2.18017 -0.0688,2.62996 -2.38125,2.64583 0,0 -14.55208,0 -14.55208,0 -0.67204,-0.003 -1.7145,0.0847 -2.2225,-0.42333 -0.43392,-0.43127 -0.41275,-1.12713 -0.42333,-1.69333 0,0 0,-6.35 0,-6.35 z m 19.05,0.52916 c 0,0 0,0.26459 0,0.26459 0,0 -0.26459,-0.26459 -0.26459,-0.26459 0,0 0.26459,0 0.26459,0 z m 6.35,0 c -0.25136,2.37067 -1.05834,1.86267 -1.05834,6.87917 1.63248,0.13758 4.95036,0.66146 5.82084,2.11667 0,0 -6.87917,-1.5875 -6.87917,-1.5875 0,0 -0.26458,-5.82084 -0.26458,-5.82084 1.03452,-0.93927 0.96837,-1.34673 2.38125,-1.5875 z m -12.17084,1.32292 c -0.93398,-0.1614 -0.96837,-0.17727 -1.32291,-1.05833 0.93662,0.16404 1.00541,0.15345 1.32291,1.05833 z m 6.08542,-1.05833 c 0,0 0,0.26458 0,0.26458 0,0 -0.26458,-0.26458 -0.26458,-0.26458 0,0 0.26458,0 0.26458,0 z m -3.43958,0.26458 c 0,0 0,2.11667 0,2.11667 0,0 2.11666,0 2.11666,0 0,0 0,-2.11667 0,-2.11667 0,0 -2.11666,0 -2.11666,0 z m -5.29167,1.05833 c 0,0 0,0.52917 0,0.52917 0,0 -1.32292,0 -1.32292,0 0,0 0,0.52917 0,0.52917 0.39952,0.0714 0.76994,0.0582 1.05569,0.42333 0.33602,0.4445 0.35983,2.90777 0,3.34962 -0.20373,0.2593 -0.48948,0.33867 -0.80169,0.39423 -2.46327,0.43657 -3.35227,-2.11137 -0.78316,-2.3151 -0.44186,-1.85473 -0.13759,-2.84163 1.85208,-2.91042 z m 3.43958,0.0185 c 0,0 -1.05833,2.8919 -1.05833,2.8919 0,0 1.56898,0 1.56898,0 0,0 0,1.30704 0,1.30704 -0.20902,1.1139 -1.87325,1.48431 -2.73315,0.80433 -0.47096,-0.37306 -0.42862,-1.28852 -0.49741,-1.84679 -0.17992,-1.42081 -0.61648,-3.01096 1.37318,-3.15648 0,0 1.34673,0 1.34673,0 z m -2.11666,0.51065 c 0,0 -0.26459,1.85208 -0.26459,1.85208 0,0 1.05834,0 1.05834,0 0,0 0,-1.85208 0,-1.85208 0,0 -0.79375,0 -0.79375,0 z m -8.99584,0.52917 c 0,0 -0.79375,1.05833 -0.79375,1.05833 0,0 -0.79375,-1.05833 -0.79375,-1.05833 0,0 1.5875,0 1.5875,0 z m 6.08542,0.52916 c 0,0 0,0.79375 0,0.79375 0,0 1.05833,0 1.05833,0 0,0 0,-0.79375 0,-0.79375 0,0 -1.05833,0 -1.05833,0 z m 9.26042,3.70417 c 0,0 -2.64584,0 -2.64584,0 0,-0.56621 -0.0794,-1.78065 0.26988,-2.2225 0.48419,-0.61119 1.86531,-0.52917 2.21721,0.18785 0.20373,0.41805 0.15875,1.53988 0.15875,2.03465 z m -12.7,-2.38125 c 0,0 0,2.11667 0,2.11667 0,0 -2.91042,0 -2.91042,0 0,0 0,-2.11667 0,-2.11667 0,0 2.91042,0 2.91042,0 z m -2.64584,0.26458 c 0,0 0,0.52917 0,0.52917 0,0 2.38125,0 2.38125,0 0,0 0,-0.52917 0,-0.52917 0,0 -2.38125,0 -2.38125,0 z m 8.73125,0.26459 c 0,0 0,1.32291 0,1.32291 0,0 2.38125,0 2.38125,0 0,0 0,-1.32291 0,-1.32291 0,0 -2.38125,0 -2.38125,0 z m 2.11667,1.05833 c 0,0 -1.85208,0 -1.85208,0 0.82285,-0.71967 1.03981,-0.73819 1.85208,0 z m 2.64583,-0.79375 c 0,0 -0.52916,0.52917 -0.52916,0.52917 0.44979,1.08214 1.66687,1.08214 2.11666,0 0,0 -0.52916,-0.52917 -0.52916,-0.52917 0,0 -1.05834,0 -1.05834,0 z m -13.49375,0.52917 c 0,0 0,0.52916 0,0.52916 0,0 2.38125,0 2.38125,0 0,0 0,-0.52916 0,-0.52916 0,0 -2.38125,0 -2.38125,0 z m -6.87916,0.79375 c 0,0 -0.6059,0.64558 -0.6059,0.64558 0,0 -4.95035,0.94192 -4.95035,0.94192 1.24883,-0.84667 4.03225,-1.4605 5.55625,-1.5875 z m 2.91041,2.38125 c 0,0 -1.5875,1.05833 -1.5875,1.05833 0.36513,-0.90752 0.6694,-0.8546 1.5875,-1.05833 z m 23.28334,1.32291 c 0,0 -1.32292,-0.79375 -1.32292,-0.79375 0.89958,-0.26987 1.03452,-0.0397 1.32292,0.79375 z m -19.05,5.55625 c 0,0 0.79375,0 0.79375,0 0,0 0,-2.11666 0,-2.11666 0,0 2.11666,0 2.11666,0 0,0 0,3.70416 0,3.70416 0,0 -0.42333,1.84679 -0.42333,1.84679 0,0 -1.69333,0.26988 -1.69333,0.26988 0,0 0,-2.91042 0,-2.91042 0,0 -0.79375,0 -0.79375,0 0,0.53182 0.0556,1.86532 -0.15875,2.29923 -0.35455,0.72231 -1.44463,0.72231 -1.79917,0 -0.22225,-0.44979 -0.15875,-1.9976 -0.15875,-2.56381 -0.83608,0.11112 -0.83608,0.17198 -1.32292,-0.52917 0,0 1.32292,0 1.32292,0 0.003,-0.45508 -0.0344,-1.37583 0.15875,-1.77006 0.33073,-0.67469 1.28323,-0.69321 1.68804,-0.18785 0.33338,0.41804 0.26723,1.43404 0.26988,1.95791 z m 8.46666,2.11667 c 0,0 1.32292,-0.52917 1.32292,-0.52917 0,0 -0.79375,-0.26458 -0.79375,-0.26458 0.54769,-1.56369 1.95262,-0.97896 3.32846,-0.99483 0.52387,-0.0423 1.11919,-0.21167 1.61131,0 0.45508,0.25135 0.61913,0.60325 0.88106,0.99483 0,0 1.5875,-1.32292 1.5875,-1.32292 -1.06627,2.33363 -1.35996,1.29117 0,3.70417 -1.3335,-0.0159 -1.59014,0.09 -2.38125,-1.05833 -1.76477,1.47902 -2.84956,1.06627 -5.02708,1.02129 -0.56356,-0.0106 -1.45785,0.10054 -1.84679,-0.38629 -0.37571,-0.47096 -0.26988,-2.11667 -0.26988,-2.75167 -0.20373,0.72231 -0.27516,2.37596 -0.57414,2.7596 -0.49477,0.62707 -2.61409,0.4154 -3.39461,0.4154 0.20902,-0.8546 0.20638,-2.79929 0.68792,-3.28083 0.45508,-0.45509 4.1566,-0.61384 4.65402,-0.15611 0.40746,0.37306 0.24342,1.34144 0.21431,1.84944 z m 2.11667,-0.26458 c 0,0 -0.26458,1.05833 -0.26458,1.05833 0.48418,-0.43127 0.46566,-0.43921 0.26458,-1.05833 z m -21.96042,16.93335 c -0.9181,-0.29369 -1.02923,-0.40481 -1.32291,-1.32292 1.05833,0.18521 1.1377,0.26459 1.32291,1.32292 z m 36.77709,-1.05833 c -0.1905,1.14035 -0.44715,1.397 -1.5875,1.5875 0,0 0,-1.32292 0,-1.32292 0,0 0.52916,0.52917 0.52916,0.52917 0,0 1.05834,-0.79375 1.05834,-0.79375 z m 8.20208,3.96875 c 0,0 -1.32292,0.26458 -1.32292,0.26458 0,0 1.32292,-0.26458 1.32292,-0.26458 z m -42.33333,1.32291 c -0.63765,0.84932 -0.82286,0.75936 -1.85209,0.79375 0,0 0,-0.52916 0,-0.52916 0,0 1.32292,0.26458 1.32292,0.26458 0,0 0,-0.52917 0,-0.52917 0,0 0.52917,0 0.52917,0 z m 0.52916,1.32292 c -0.86518,0.94985 -1.12448,0.98425 -2.38125,1.05833 0,0 0,-1.05833 0,-1.05833 0,0 2.38125,0 2.38125,0 z m 31.22084,0.26458 c 0,0 0,1.05834 0,1.05834 0,0 -1.05834,-0.79375 -1.05834,-0.79375 0,0 1.05834,-0.26459 1.05834,-0.26459 z m -63.235419,17.72709 c 0,0 0,0.26458 0,0.26458 0,0 -0.26458,-0.26458 -0.26458,-0.26458 0,0 0.26458,0 0.26458,0 z m 1.85209,0.52916 c 0,0 0,0.26459 0,0.26459 0,0 -0.26459,-0.26459 -0.26459,-0.26459 0,0 0.26459,0 0.26459,0 z m 89.429159,0.26459 c 0,0 0,0.26458 0,0.26458 0,0 -0.26458,-0.26458 -0.26458,-0.26458 0,0 0.26458,0 0.26458,0 z m -1.05833,0.26458 c 0,0 0,0.26458 0,0.26458 0,0 -0.26459,-0.26458 -0.26459,-0.26458 0,0 0.26459,0 0.26459,0 z m -80.168749,1.32292 c 0,0 -1.32292,0.26458 -1.32292,0.26458 0,0 1.32292,-0.26458 1.32292,-0.26458 z m 74.612499,0 c 0,0 -1.32292,0.26458 -1.32292,0.26458 0,0 1.32292,-0.26458 1.32292,-0.26458 z m -73.289579,0.26458 c 0,0 -1.32292,0.26458 -1.32292,0.26458 0,0 1.32292,-0.26458 1.32292,-0.26458 z m 1.852079,0.26458 c 0,0 -1.5875,0.26459 -1.5875,0.26459 0,0 1.5875,-0.26459 1.5875,-0.26459 z m 1.85208,0.26459 c 0,0 -1.85208,0.26458 -1.85208,0.26458 0,0 1.85208,-0.26458 1.85208,-0.26458 z m 65.0875,0 c 0,0 -1.5875,0.26458 -1.5875,0.26458 0,0 1.5875,-0.26458 1.5875,-0.26458 z m -53.44583,1.85208 c 0,0 -11.64167,-1.34408 -11.64167,-1.34408 1.10596,-0.4154 1.78594,-0.14288 2.91042,0 0,0 5.55625,0.53975 5.55625,0.53975 1.2065,0.0529 2.36008,-0.24342 3.175,0.80433 z m 44.71458,-1.5875 c 0,0 -2.38125,0.26458 -2.38125,0.26458 0,0 2.38125,-0.26458 2.38125,-0.26458 z m 6.87917,0 c 0,0 -1.85209,0.26458 -1.85209,0.26458 0,0 1.85209,-0.26458 1.85209,-0.26458 z m -9.26042,0.26458 c 0,0 -2.64583,0.26459 -2.64583,0.26459 0,0 2.64583,-0.26459 2.64583,-0.26459 z m 7.40833,0 c 0,0 -2.11666,0.26459 -2.11666,0.26459 0,0 2.11666,-0.26459 2.11666,-0.26459 z m -2.11666,0.26459 c 0,0 -2.11667,0.26458 -2.11667,0.26458 0,0 2.11667,-0.26458 2.11667,-0.26458 z m -2.11667,0.26458 c 0,0 -6.61458,0.79375 -6.61458,0.79375 1.18533,-0.68792 5.11439,-0.79375 6.61458,-0.79375 z"
       id="Selection"
       inkscape:connector-curvature="0"
       style="fill:#000000;stroke:#000000;stroke-width:0.26458332;fill-opacity:1" />
  </g>
</svg>
