<?xml version="1.0" encoding="UTF-8" standalone="no"?>
<!-- Created with Inkscape (http://www.inkscape.org/) -->

<svg
   xmlns:dc="http://purl.org/dc/elements/1.1/"
   xmlns:cc="http://creativecommons.org/ns#"
   xmlns:rdf="http://www.w3.org/1999/02/22-rdf-syntax-ns#"
   xmlns:svg="http://www.w3.org/2000/svg"
   xmlns="http://www.w3.org/2000/svg"
   xmlns:sodipodi="http://sodipodi.sourceforge.net/DTD/sodipodi-0.dtd"
   xmlns:inkscape="http://www.inkscape.org/namespaces/inkscape"
   width="260mm"
   height="260mm"
   viewBox="0 0 260 260"
   version="1.1"
   id="svg8"
   inkscape:version="0.92.5 (2060ec1f9f, 2020-04-08)"
   sodipodi:docname="icon.svg">
  <defs
     id="defs2" />
  <sodipodi:namedview
     id="base"
     pagecolor="#ffffff"
     bordercolor="#666666"
     borderopacity="1.0"
     inkscape:pageopacity="0.0"
     inkscape:pageshadow="2"
     inkscape:zoom="0.49497475"
     inkscape:cx="-479.85542"
     inkscape:cy="362.88712"
     inkscape:document-units="mm"
     inkscape:current-layer="layer1"
     showgrid="false"
     inkscape:window-width="2539"
     inkscape:window-height="1386"
     inkscape:window-x="72"
     inkscape:window-y="0"
     inkscape:window-maximized="0" />
  <metadata
     id="metadata5">
    <rdf:RDF>
      <cc:Work
         rdf:about="">
        <dc:format>image/svg+xml</dc:format>
        <dc:type
           rdf:resource="http://purl.org/dc/dcmitype/StillImage" />
        <dc:title></dc:title>
      </cc:Work>
    </rdf:RDF>
  </metadata>
  <g
     inkscape:label="Layer 1"
     inkscape:groupmode="layer"
     id="layer1"
     transform="translate(0,-37)">
    <path
       d="m 216.73364,283.66911 c 0,0 0,-218.545828 0,-218.545828 -0.005,-2.894542 -1.04775,-3.447521 -2.53471,-5.820833 0,0 -4.61962,-7.109355 -4.61962,-7.109355 0,0 -1.16682,-1.211791 -1.16682,-1.211791 -0.49741,-0.653521 -0.40216,-1.267354 -1.02129,-1.93675 -0.87048,-0.941917 -1.92881,-0.851959 -3.09298,-0.854604 0,0 -14.81666,0 -14.81666,0 0,0 -54.23959,0 -54.23959,0 0,0 -3.96875,0.264583 -3.96875,0.264583 0,0 -14.55208,0 -14.55208,0 0,0 -4.49792,0.264583 -4.49792,0.264583 0,0 -13.493747,0 -13.493747,0 0,0 -5.55625,0.264584 -5.55625,0.264584 0,0 -8.995833,0 -8.995833,0 0,0 -4.497917,0.264583 -4.497917,0.264583 0,0 -10.847916,0 -10.847916,0 0,0 -3.96875,0.264583 -3.96875,0.264583 0,0 -9.260417,0 -9.260417,0 0,0 -5.291667,0.264584 -5.291667,0.264584 0,0 -3.704166,0 -3.704166,0 -2.10873,0.01323 -2.114021,0.312208 -2.116667,2.645833 0,0 0,14.816667 0,14.816667 0,0 -0.529168,5.55625 -0.529168,5.55625 0,0 0,33.602081 0,33.602081 0,0 0,174.88958 0,174.88958 0,0.60854 -0.100541,1.69598 0.423335,2.11138 0.420687,0.33073 1.431395,0.26987 1.957916,0.26987 0,0 6.879167,0 6.879167,0 0,0 30.95625,0 30.95625,0 0,0 132.55625,0 132.55625,0 z M 201.91697,50.835782 c 0,0 -5.55625,-0.264583 -5.55625,-0.264583 0,0 0,-0.526521 0,-0.526521 0.90752,-0.259292 4.40267,-0.555625 5.13557,0 0.32014,0.248708 0.30691,0.465666 0.42068,0.791104 z m 6.61459,1.852083 c 0,0 1.86795,2.645834 1.86795,2.645834 0,0 2.19075,3.704166 2.19075,3.704166 1.71715,2.637896 2.81517,3.074459 2.82046,6.35 0,0 0,56.091665 0,56.091665 0,0 0,161.13125 0,161.13125 0,0 -8.73125,0 -8.73125,0 0,0 0,-212.460415 0,-212.460415 0,0 1.5875,0.529167 1.5875,0.529167 0,0 0,-12.170833 0,-12.170833 0,0 0.26459,-5.820834 0.26459,-5.820834 z M 52.162807,57.979532 c 1.822979,1.653646 1.666875,1.9685 0,3.704167 -2.066396,-1.500188 -2.124605,-2.286 0,-3.704167 z m 5.291666,1.322917 c 0,0 0,-1.322917 0,-1.322917 0,0 0.529167,0 0.529167,0 0,0 0,3.439583 0,3.439583 -1.711854,-0.283104 -1.576917,-0.989541 -2.910417,-2.116666 0,0 0,2.116666 0,2.116666 0,0 -0.529166,0 -0.529166,0 0,0 0,-3.439583 0,-3.439583 1.674812,0.05821 1.656291,0.280458 2.910416,1.322917 z m 1.322917,2.116666 c 0,0 0,-3.439583 0,-3.439583 2.124604,0.373062 1.259417,2.881312 0.899583,3.169708 -0.280458,0.227542 -0.576791,0.214313 -0.899583,0.269875 z m 2.116667,-0.264583 c 0,0 0,-3.175 0,-3.175 0.55827,0 2.121958,-0.06085 2.55852,0.15875 0.685271,0.343958 0.886355,2.286 0.254,2.746375 -0.508,0.370417 -2.148416,0.269875 -2.81252,0.269875 z m 6.879166,-2.38125 c 0,0 -1.5875,-0.264583 -1.5875,-0.264583 0,0 0.79375,1.058333 0.79375,1.058333 0,0 -0.79375,1.058333 -0.79375,1.058333 0,0 1.5875,-0.264583 1.5875,-0.264583 -0.695854,1.039813 -1.486958,0.79375 -2.645833,0.79375 0,0 0,-3.175 0,-3.175 1.158875,0 1.949979,-0.246063 2.645833,0.79375 z m -15.875,-0.264583 c -0.677333,0.84402 -1.031875,1.0795 -0.433916,2.116666 0,0 0.433916,0.529167 0.433916,0.529167 1.307042,-1.031875 1.307042,-1.613958 0,-2.645833 z m 10.31875,0 c 0,0 0,0.79375 0,0.79375 0,0 0.79375,0 0.79375,0 0,0 0,-0.79375 0,-0.79375 0,0 -0.79375,0 -0.79375,0 z m -9.789583,1.058333 c 0,0 0,0.79375 0,0.79375 0,0 -0.79375,0 -0.79375,0 0,0 0,-0.79375 0,-0.79375 0,0 0.79375,0 0.79375,0 z m 9.789583,0.264583 c 0,0 0,0.79375 0,0.79375 0,0 0.79375,0 0.79375,0 0,0 0,-0.79375 0,-0.79375 0,0 -0.79375,0 -0.79375,0 z m 90.222917,9.525 c 0,0 0,213.254165 0,213.254165 0,0 -106.891667,0 -106.891667,0 0,0 0,-211.931248 0,-211.931248 0,0 10.31875,0 10.31875,0 0,0 4.497917,-0.264583 4.497917,-0.264583 0,0 12.7,0 12.7,0 0,0 4.497917,-0.264584 4.497917,-0.264584 0,0 11.1125,0 11.1125,0 0,0 4.7625,-0.264583 4.7625,-0.264583 0,0 18.520833,0 18.520833,0 0,0 3.96875,-0.264583 3.96875,-0.264583 0,0 15.61042,0 15.61042,0 0,0 4.49791,-0.264584 4.49791,-0.264584 0,0 16.40417,0 16.40417,0 z m 52.91667,0 c 0,0 0,113.506245 0,113.506245 0,0 -0.26459,3.96875 -0.26459,3.96875 0,0 0,59.26667 0,59.26667 0,0 -0.26458,3.96875 -0.26458,3.96875 0,0 0,32.54375 0,32.54375 0,0 -51.06458,0 -51.06458,0 0,0 0,-213.254165 0,-213.254165 0,0 51.59375,0 51.59375,0 z"
       id="Selection-3"
       inkscape:connector-curvature="0"
       style="fill:#000000;stroke:#000000;stroke-width:0.26458332;fill-opacity:1" />
  </g>
</svg>
